<?xml version="1.0" standalone="no"?>
<!DOCTYPE svg PUBLIC "-//W3C//DTD SVG 1.1//EN" "http://www.w3.org/Graphics/SVG/1.1/DTD/svg11.dtd">
<svg version="1.1" width="1200" height="358" onload="init(evt)" viewBox="0 0 1200 358" xmlns="http://www.w3.org/2000/svg" xmlns:xlink="http://www.w3.org/1999/xlink">
<!-- Flame graph stack visualization. See https://github.com/brendangregg/FlameGraph for latest version, and http://www.brendangregg.com/flamegraphs.html for examples. -->
<!-- NOTES:  -->
<defs>
	<linearGradient id="background" y1="0" y2="1" x1="0" x2="0" >
		<stop stop-color="#eeeeee" offset="5%" />
		<stop stop-color="#eeeeb0" offset="95%" />
	</linearGradient>
</defs>
<style type="text/css">
	text { font-family:Verdana; font-size:12px; fill:rgb(0,0,0); }
	#search, #ignorecase { opacity:0.1; cursor:pointer; }
	#search:hover, #search.show, #ignorecase:hover, #ignorecase.show { opacity:1; }
	#subtitle { text-anchor:middle; font-color:rgb(160,160,160); }
	#title { text-anchor:middle; font-size:17px}
	#unzoom { cursor:pointer; }
	#frames > *:hover { stroke:black; stroke-width:0.5; cursor:pointer; }
	.hide { display:none; }
	.parent { opacity:0.5; }
</style>
<script type="text/ecmascript">
<![CDATA[
	"use strict";
	var details, searchbtn, unzoombtn, matchedtxt, svg, searching, currentSearchTerm, ignorecase, ignorecaseBtn;
	function init(evt) {
		details = document.getElementById("details").firstChild;
		searchbtn = document.getElementById("search");
		ignorecaseBtn = document.getElementById("ignorecase");
		unzoombtn = document.getElementById("unzoom");
		matchedtxt = document.getElementById("matched");
		svg = document.getElementsByTagName("svg")[0];
		searching = 0;
		currentSearchTerm = null;

		// use GET parameters to restore a flamegraphs state.
		var params = get_params();
		if (params.x && params.y)
			zoom(find_group(document.querySelector('[x="' + params.x + '"][y="' + params.y + '"]')));
                if (params.s) search(params.s);
	}

	// event listeners
	window.addEventListener("click", function(e) {
		var target = find_group(e.target);
		if (target) {
			if (target.nodeName == "a") {
				if (e.ctrlKey === false) return;
				e.preventDefault();
			}
			if (target.classList.contains("parent")) unzoom(true);
			zoom(target);
			if (!document.querySelector('.parent')) {
				// we have basically done a clearzoom so clear the url
				var params = get_params();
				if (params.x) delete params.x;
				if (params.y) delete params.y;
				history.replaceState(null, null, parse_params(params));
				unzoombtn.classList.add("hide");
				return;
			}

			// set parameters for zoom state
			var el = target.querySelector("rect");
			if (el && el.attributes && el.attributes.y && el.attributes._orig_x) {
				var params = get_params()
				params.x = el.attributes._orig_x.value;
				params.y = el.attributes.y.value;
				history.replaceState(null, null, parse_params(params));
			}
		}
		else if (e.target.id == "unzoom") clearzoom();
		else if (e.target.id == "search") search_prompt();
		else if (e.target.id == "ignorecase") toggle_ignorecase();
	}, false)

	// mouse-over for info
	// show
	window.addEventListener("mouseover", function(e) {
		var target = find_group(e.target);
		if (target) details.nodeValue = "Function: " + g_to_text(target);
	}, false)

	// clear
	window.addEventListener("mouseout", function(e) {
		var target = find_group(e.target);
		if (target) details.nodeValue = ' ';
	}, false)

	// ctrl-F for search
	// ctrl-I to toggle case-sensitive search
	window.addEventListener("keydown",function (e) {
		if (e.keyCode === 114 || (e.ctrlKey && e.keyCode === 70)) {
			e.preventDefault();
			search_prompt();
		}
		else if (e.ctrlKey && e.keyCode === 73) {
			e.preventDefault();
			toggle_ignorecase();
		}
	}, false)

	// functions
	function get_params() {
		var params = {};
		var paramsarr = window.location.search.substr(1).split('&');
		for (var i = 0; i < paramsarr.length; ++i) {
			var tmp = paramsarr[i].split("=");
			if (!tmp[0] || !tmp[1]) continue;
			params[tmp[0]]  = decodeURIComponent(tmp[1]);
		}
		return params;
	}
	function parse_params(params) {
		var uri = "?";
		for (var key in params) {
			uri += key + '=' + encodeURIComponent(params[key]) + '&';
		}
		if (uri.slice(-1) == "&")
			uri = uri.substring(0, uri.length - 1);
		if (uri == '?')
			uri = window.location.href.split('?')[0];
		return uri;
	}
	function find_child(node, selector) {
		var children = node.querySelectorAll(selector);
		if (children.length) return children[0];
	}
	function find_group(node) {
		var parent = node.parentElement;
		if (!parent) return;
		if (parent.id == "frames") return node;
		return find_group(parent);
	}
	function orig_save(e, attr, val) {
		if (e.attributes["_orig_" + attr] != undefined) return;
		if (e.attributes[attr] == undefined) return;
		if (val == undefined) val = e.attributes[attr].value;
		e.setAttribute("_orig_" + attr, val);
	}
	function orig_load(e, attr) {
		if (e.attributes["_orig_"+attr] == undefined) return;
		e.attributes[attr].value = e.attributes["_orig_" + attr].value;
		e.removeAttribute("_orig_"+attr);
	}
	function g_to_text(e) {
		var text = find_child(e, "title").firstChild.nodeValue;
		return (text)
	}
	function g_to_func(e) {
		var func = g_to_text(e);
		// if there's any manipulation we want to do to the function
		// name before it's searched, do it here before returning.
		return (func);
	}
	function update_text(e) {
		var r = find_child(e, "rect");
		var t = find_child(e, "text");
		var w = parseFloat(r.attributes.width.value) -3;
		var txt = find_child(e, "title").textContent.replace(/\([^(]*\)$/,"");
		t.attributes.x.value = parseFloat(r.attributes.x.value) + 3;

		// Smaller than this size won't fit anything
		if (w < 2 * 12 * 0.59) {
			t.textContent = "";
			return;
		}

		t.textContent = txt;
		var sl = t.getSubStringLength(0, txt.length);
		// check if only whitespace or if we can fit the entire string into width w
		if (/^ *$/.test(txt) || sl < w)
			return;

		// this isn't perfect, but gives a good starting point
		// and avoids calling getSubStringLength too often
		var start = Math.floor((w/sl) * txt.length);
		for (var x = start; x > 0; x = x-2) {
			if (t.getSubStringLength(0, x + 2) <= w) {
				t.textContent = txt.substring(0, x) + "..";
				return;
			}
		}
		t.textContent = "";
	}

	// zoom
	function zoom_reset(e) {
		if (e.attributes != undefined) {
			orig_load(e, "x");
			orig_load(e, "width");
		}
		if (e.childNodes == undefined) return;
		for (var i = 0, c = e.childNodes; i < c.length; i++) {
			zoom_reset(c[i]);
		}
	}
	function zoom_child(e, x, ratio) {
		if (e.attributes != undefined) {
			if (e.attributes.x != undefined) {
				orig_save(e, "x");
				e.attributes.x.value = (parseFloat(e.attributes.x.value) - x - 10) * ratio + 10;
				if (e.tagName == "text")
					e.attributes.x.value = find_child(e.parentNode, "rect[x]").attributes.x.value + 3;
			}
			if (e.attributes.width != undefined) {
				orig_save(e, "width");
				e.attributes.width.value = parseFloat(e.attributes.width.value) * ratio;
			}
		}

		if (e.childNodes == undefined) return;
		for (var i = 0, c = e.childNodes; i < c.length; i++) {
			zoom_child(c[i], x - 10, ratio);
		}
	}
	function zoom_parent(e) {
		if (e.attributes) {
			if (e.attributes.x != undefined) {
				orig_save(e, "x");
				e.attributes.x.value = 10;
			}
			if (e.attributes.width != undefined) {
				orig_save(e, "width");
				e.attributes.width.value = parseInt(svg.width.baseVal.value) - (10 * 2);
			}
		}
		if (e.childNodes == undefined) return;
		for (var i = 0, c = e.childNodes; i < c.length; i++) {
			zoom_parent(c[i]);
		}
	}
	function zoom(node) {
		var attr = find_child(node, "rect").attributes;
		var width = parseFloat(attr.width.value);
		var xmin = parseFloat(attr.x.value);
		var xmax = parseFloat(xmin + width);
		var ymin = parseFloat(attr.y.value);
		var ratio = (svg.width.baseVal.value - 2 * 10) / width;

		// XXX: Workaround for JavaScript float issues (fix me)
		var fudge = 0.0001;

		unzoombtn.classList.remove("hide");

		var el = document.getElementById("frames").children;
		for (var i = 0; i < el.length; i++) {
			var e = el[i];
			var a = find_child(e, "rect").attributes;
			var ex = parseFloat(a.x.value);
			var ew = parseFloat(a.width.value);
			var upstack;
			// Is it an ancestor
			if (0 == 0) {
				upstack = parseFloat(a.y.value) > ymin;
			} else {
				upstack = parseFloat(a.y.value) < ymin;
			}
			if (upstack) {
				// Direct ancestor
				if (ex <= xmin && (ex+ew+fudge) >= xmax) {
					e.classList.add("parent");
					zoom_parent(e);
					update_text(e);
				}
				// not in current path
				else
					e.classList.add("hide");
			}
			// Children maybe
			else {
				// no common path
				if (ex < xmin || ex + fudge >= xmax) {
					e.classList.add("hide");
				}
				else {
					zoom_child(e, xmin, ratio);
					update_text(e);
				}
			}
		}
		search();
	}
	function unzoom(dont_update_text) {
		unzoombtn.classList.add("hide");
		var el = document.getElementById("frames").children;
		for(var i = 0; i < el.length; i++) {
			el[i].classList.remove("parent");
			el[i].classList.remove("hide");
			zoom_reset(el[i]);
			if(!dont_update_text) update_text(el[i]);
		}
		search();
	}
	function clearzoom() {
		unzoom();

		// remove zoom state
		var params = get_params();
		if (params.x) delete params.x;
		if (params.y) delete params.y;
		history.replaceState(null, null, parse_params(params));
	}

	// search
	function toggle_ignorecase() {
		ignorecase = !ignorecase;
		if (ignorecase) {
			ignorecaseBtn.classList.add("show");
		} else {
			ignorecaseBtn.classList.remove("show");
		}
		reset_search();
		search();
	}
	function reset_search() {
		var el = document.querySelectorAll("#frames rect");
		for (var i = 0; i < el.length; i++) {
			orig_load(el[i], "fill")
		}
		var params = get_params();
		delete params.s;
		history.replaceState(null, null, parse_params(params));
	}
	function search_prompt() {
		if (!searching) {
			var term = prompt("Enter a search term (regexp " +
			    "allowed, eg: ^ext4_)"
			    + (ignorecase ? ", ignoring case" : "")
			    + "\nPress Ctrl-i to toggle case sensitivity", "");
			if (term != null) search(term);
		} else {
			reset_search();
			searching = 0;
			currentSearchTerm = null;
			searchbtn.classList.remove("show");
			searchbtn.firstChild.nodeValue = "Search"
			matchedtxt.classList.add("hide");
			matchedtxt.firstChild.nodeValue = ""
		}
	}
	function search(term) {
		if (term) currentSearchTerm = term;
		if (currentSearchTerm === null) return;

		var re = new RegExp(currentSearchTerm, ignorecase ? 'i' : '');
		var el = document.getElementById("frames").children;
		var matches = new Object();
		var maxwidth = 0;
		for (var i = 0; i < el.length; i++) {
			var e = el[i];
			var func = g_to_func(e);
			var rect = find_child(e, "rect");
			if (func == null || rect == null)
				continue;

			// Save max width. Only works as we have a root frame
			var w = parseFloat(rect.attributes.width.value);
			if (w > maxwidth)
				maxwidth = w;

			if (func.match(re)) {
				// highlight
				var x = parseFloat(rect.attributes.x.value);
				orig_save(rect, "fill");
				rect.attributes.fill.value = "rgb(230,0,230)";

				// remember matches
				if (matches[x] == undefined) {
					matches[x] = w;
				} else {
					if (w > matches[x]) {
						// overwrite with parent
						matches[x] = w;
					}
				}
				searching = 1;
			}
		}
		if (!searching)
			return;
		var params = get_params();
		params.s = currentSearchTerm;
		history.replaceState(null, null, parse_params(params));

		searchbtn.classList.add("show");
		searchbtn.firstChild.nodeValue = "Reset Search";

		// calculate percent matched, excluding vertical overlap
		var count = 0;
		var lastx = -1;
		var lastw = 0;
		var keys = Array();
		for (k in matches) {
			if (matches.hasOwnProperty(k))
				keys.push(k);
		}
		// sort the matched frames by their x location
		// ascending, then width descending
		keys.sort(function(a, b){
			return a - b;
		});
		// Step through frames saving only the biggest bottom-up frames
		// thanks to the sort order. This relies on the tree property
		// where children are always smaller than their parents.
		var fudge = 0.0001;	// JavaScript floating point
		for (var k in keys) {
			var x = parseFloat(keys[k]);
			var w = matches[keys[k]];
			if (x >= lastx + lastw - fudge) {
				count += w;
				lastx = x;
				lastw = w;
			}
		}
		// display matched percent
		matchedtxt.classList.remove("hide");
		var pct = 100 * count / maxwidth;
		if (pct != 100) pct = pct.toFixed(1)
		matchedtxt.firstChild.nodeValue = "Matched: " + pct + "%";
	}
]]>
</script>
<rect x="0.0" y="0" width="1200.0" height="358.0" fill="url(#background)"  />
<text id="title" x="600.00" y="24" >Flame Graph</text>
<text id="details" x="10.00" y="341" > </text>
<text id="unzoom" x="10.00" y="24" class="hide">Reset Zoom</text>
<text id="search" x="1090.00" y="24" >Search</text>
<text id="ignorecase" x="1174.00" y="24" >ic</text>
<text id="matched" x="1090.00" y="341" > </text>
<g id="frames">
<g >
<title>runtime.systemstack (41 samples, 0.12%)</title><rect x="1185.6" y="229" width="1.4" height="15.0" fill="rgb(206,6,1)" rx="2" ry="2" />
<text  x="1188.64" y="239.5" ></text>
</g>
<g >
<title>runtime.suspendG (21 samples, 0.06%)</title><rect x="1188.9" y="197" width="0.7" height="15.0" fill="rgb(246,191,45)" rx="2" ry="2" />
<text  x="1191.90" y="207.5" ></text>
</g>
<g >
<title>runtime.markroot.func1 (21 samples, 0.06%)</title><rect x="1188.9" y="213" width="0.7" height="15.0" fill="rgb(222,80,19)" rx="2" ry="2" />
<text  x="1191.90" y="223.5" ></text>
</g>
<g >
<title>runtime.markroot.func1 (8 samples, 0.02%)</title><rect x="450.1" y="133" width="0.3" height="15.0" fill="rgb(222,80,19)" rx="2" ry="2" />
<text  x="453.11" y="143.5" ></text>
</g>
<g >
<title>runtime.gcTrigger.test (10 samples, 0.03%)</title><rect x="1099.8" y="245" width="0.3" height="15.0" fill="rgb(206,6,1)" rx="2" ry="2" />
<text  x="1102.80" y="255.5" ></text>
</g>
<g >
<title>runtime.(*sysMemStat).add (4 samples, 0.01%)</title><rect x="1187.9" y="197" width="0.2" height="15.0" fill="rgb(236,143,34)" rx="2" ry="2" />
<text  x="1190.94" y="207.5" ></text>
</g>
<g >
<title>runtime.bgscavenge (42 samples, 0.12%)</title><rect x="1185.6" y="293" width="1.4" height="15.0" fill="rgb(228,109,26)" rx="2" ry="2" />
<text  x="1188.61" y="303.5" ></text>
</g>
<g >
<title>runtime.(*mheap).allocSpan (59 samples, 0.17%)</title><rect x="1083.7" y="133" width="2.0" height="15.0" fill="rgb(233,132,31)" rx="2" ry="2" />
<text  x="1086.70" y="143.5" ></text>
</g>
<g >
<title>runtime.sweepone (53 samples, 0.15%)</title><rect x="1187.1" y="277" width="1.8" height="15.0" fill="rgb(209,19,4)" rx="2" ry="2" />
<text  x="1190.08" y="287.5" ></text>
</g>
<g >
<title>runtime.lockWithRank (3 samples, 0.01%)</title><rect x="1086.1" y="117" width="0.1" height="15.0" fill="rgb(214,42,10)" rx="2" ry="2" />
<text  x="1089.07" y="127.5" ></text>
</g>
<g >
<title>runtime.procyield (19 samples, 0.06%)</title><rect x="1189.0" y="181" width="0.6" height="15.0" fill="rgb(206,8,1)" rx="2" ry="2" />
<text  x="1191.97" y="191.5" ></text>
</g>
<g >
<title>runtime.memclrNoHeapPointersChunked (200 samples, 0.58%)</title><rect x="450.4" y="245" width="6.8" height="15.0" fill="rgb(241,169,40)" rx="2" ry="2" />
<text  x="453.38" y="255.5" ></text>
</g>
<g >
<title>runtime.asyncPreempt (5 samples, 0.01%)</title><rect x="416.0" y="261" width="0.2" height="15.0" fill="rgb(243,174,41)" rx="2" ry="2" />
<text  x="419.02" y="271.5" ></text>
</g>
<g >
<title>runtime.systemstack (22 samples, 0.06%)</title><rect x="1187.4" y="245" width="0.7" height="15.0" fill="rgb(206,6,1)" rx="2" ry="2" />
<text  x="1190.39" y="255.5" ></text>
</g>
<g >
<title>runtime.memclrNoHeapPointers (200 samples, 0.58%)</title><rect x="450.4" y="229" width="6.8" height="15.0" fill="rgb(252,219,52)" rx="2" ry="2" />
<text  x="453.38" y="239.5" ></text>
</g>
<g >
<title>runtime.lockWithRank (9 samples, 0.03%)</title><rect x="1085.7" y="69" width="0.3" height="15.0" fill="rgb(214,42,10)" rx="2" ry="2" />
<text  x="1088.72" y="79.5" ></text>
</g>
<g >
<title>internal/runtime/atomic.(*Uint64).Add (6 samples, 0.02%)</title><rect x="1087.4" y="181" width="0.2" height="15.0" fill="rgb(219,67,16)" rx="2" ry="2" />
<text  x="1090.44" y="191.5" ></text>
</g>
<g >
<title>runtime.(*pageAlloc).free (12 samples, 0.03%)</title><rect x="1187.5" y="197" width="0.4" height="15.0" fill="rgb(247,196,46)" rx="2" ry="2" />
<text  x="1190.53" y="207.5" ></text>
</g>
<g >
<title>runtime.(*mheap).freeSpan (9 samples, 0.03%)</title><rect x="1085.7" y="101" width="0.3" height="15.0" fill="rgb(212,32,7)" rx="2" ry="2" />
<text  x="1088.72" y="111.5" ></text>
</g>
<g >
<title>runtime.gcDrainN (8 samples, 0.02%)</title><rect x="450.1" y="165" width="0.3" height="15.0" fill="rgb(229,112,26)" rx="2" ry="2" />
<text  x="453.11" y="175.5" ></text>
</g>
<g >
<title>runtime.gcAssistAlloc.func1 (8 samples, 0.02%)</title><rect x="450.1" y="197" width="0.3" height="15.0" fill="rgb(247,197,47)" rx="2" ry="2" />
<text  x="453.11" y="207.5" ></text>
</g>
<g >
<title>runtime.(*mheap).alloc.func1 (78 samples, 0.23%)</title><rect x="1083.6" y="149" width="2.7" height="15.0" fill="rgb(252,216,51)" rx="2" ry="2" />
<text  x="1086.63" y="159.5" ></text>
</g>
<g >
<title>runtime.mallocgc (212 samples, 0.62%)</title><rect x="450.0" y="261" width="7.2" height="15.0" fill="rgb(241,169,40)" rx="2" ry="2" />
<text  x="452.97" y="271.5" ></text>
</g>
<g >
<title>runtime.acquirem (533 samples, 1.55%)</title><rect x="922.7" y="261" width="18.3" height="15.0" fill="rgb(206,5,1)" rx="2" ry="2" />
<text  x="925.68" y="271.5" ></text>
</g>
<g >
<title>runtime.deductAssistCredit (8 samples, 0.02%)</title><rect x="450.1" y="245" width="0.3" height="15.0" fill="rgb(218,63,15)" rx="2" ry="2" />
<text  x="453.11" y="255.5" ></text>
</g>
<g >
<title>runtime.gcDrain (21 samples, 0.06%)</title><rect x="1188.9" y="245" width="0.7" height="15.0" fill="rgb(233,130,31)" rx="2" ry="2" />
<text  x="1191.90" y="255.5" ></text>
</g>
<g >
<title>runtime.deductSweepCredit (4 samples, 0.01%)</title><rect x="1087.0" y="197" width="0.1" height="15.0" fill="rgb(211,30,7)" rx="2" ry="2" />
<text  x="1089.96" y="207.5" ></text>
</g>
<g >
<title>runtime.tophash (26 samples, 0.08%)</title><rect x="1184.7" y="277" width="0.9" height="15.0" fill="rgb(226,97,23)" rx="2" ry="2" />
<text  x="1187.68" y="287.5" ></text>
</g>
<g >
<title>aeshashbody (1,234 samples, 3.59%)</title><rect x="767.7" y="261" width="42.4" height="15.0" fill="rgb(250,210,50)" rx="2" ry="2" />
<text  x="770.74" y="271.5" >aes..</text>
</g>
<g >
<title>runtime.slicebytetostring (9,455 samples, 27.50%)</title><rect x="860.1" y="277" width="324.6" height="15.0" fill="rgb(252,219,52)" rx="2" ry="2" />
<text  x="863.14" y="287.5" >runtime.slicebytetostring</text>
</g>
<g >
<title>runtime.procyield (6 samples, 0.02%)</title><rect x="450.2" y="101" width="0.2" height="15.0" fill="rgb(206,8,1)" rx="2" ry="2" />
<text  x="453.17" y="111.5" ></text>
</g>
<g >
<title>internal/runtime/atomic.(*Uint32).Add (3 samples, 0.01%)</title><rect x="1086.6" y="181" width="0.2" height="15.0" fill="rgb(251,215,51)" rx="2" ry="2" />
<text  x="1089.65" y="191.5" ></text>
</g>
<g >
<title>runtime.markroot (21 samples, 0.06%)</title><rect x="1188.9" y="229" width="0.7" height="15.0" fill="rgb(251,212,50)" rx="2" ry="2" />
<text  x="1191.90" y="239.5" ></text>
</g>
<g >
<title>runtime.memequal (108 samples, 0.31%)</title><rect x="609.9" y="261" width="3.7" height="15.0" fill="rgb(206,5,1)" rx="2" ry="2" />
<text  x="612.85" y="271.5" ></text>
</g>
<g >
<title>runtime.madvise (39 samples, 0.11%)</title><rect x="1185.7" y="165" width="1.3" height="15.0" fill="rgb(216,54,12)" rx="2" ry="2" />
<text  x="1188.71" y="175.5" ></text>
</g>
<g >
<title>runtime.gcAssistAlloc1 (8 samples, 0.02%)</title><rect x="450.1" y="181" width="0.3" height="15.0" fill="rgb(209,22,5)" rx="2" ry="2" />
<text  x="453.11" y="191.5" ></text>
</g>
<g >
<title>runtime.(*pageAlloc).scavenge.func1 (41 samples, 0.12%)</title><rect x="1185.6" y="213" width="1.4" height="15.0" fill="rgb(217,56,13)" rx="2" ry="2" />
<text  x="1188.64" y="223.5" ></text>
</g>
<g >
<title>runtime.(*spanSet).push (10 samples, 0.03%)</title><rect x="1087.3" y="197" width="0.3" height="15.0" fill="rgb(252,216,51)" rx="2" ry="2" />
<text  x="1090.30" y="207.5" ></text>
</g>
<g >
<title>runtime.makeslice (212 samples, 0.62%)</title><rect x="450.0" y="277" width="7.2" height="15.0" fill="rgb(244,180,43)" rx="2" ry="2" />
<text  x="452.97" y="287.5" ></text>
</g>
<g >
<title>internal/runtime/atomic.(*Uint64).Add (6 samples, 0.02%)</title><rect x="1083.0" y="213" width="0.2" height="15.0" fill="rgb(219,67,16)" rx="2" ry="2" />
<text  x="1085.98" y="223.5" ></text>
</g>
<g >
<title>runtime.(*mcentral).grow (79 samples, 0.23%)</title><rect x="1083.6" y="197" width="2.7" height="15.0" fill="rgb(233,130,31)" rx="2" ry="2" />
<text  x="1086.59" y="207.5" ></text>
</g>
<g >
<title>runtime.main (3 samples, 0.01%)</title><rect x="1189.6" y="293" width="0.1" height="15.0" fill="rgb(209,21,5)" rx="2" ry="2" />
<text  x="1192.62" y="303.5" ></text>
</g>
<g >
<title>runtime.gcAssistAlloc (8 samples, 0.02%)</title><rect x="450.1" y="229" width="0.3" height="15.0" fill="rgb(226,98,23)" rx="2" ry="2" />
<text  x="453.11" y="239.5" ></text>
</g>
<g >
<title>runtime.nextFreeFast (751 samples, 2.18%)</title><rect x="1151.1" y="261" width="25.8" height="15.0" fill="rgb(227,102,24)" rx="2" ry="2" />
<text  x="1154.08" y="271.5" >r..</text>
</g>
<g >
<title>runtime.mapaccess2_faststr (6,977 samples, 20.29%)</title><rect x="620.5" y="277" width="239.4" height="15.0" fill="rgb(238,152,36)" rx="2" ry="2" />
<text  x="623.46" y="287.5" >runtime.mapaccess2_faststr</text>
</g>
<g >
<title>runtime.(*scavengerState).run (42 samples, 0.12%)</title><rect x="1185.6" y="277" width="1.4" height="15.0" fill="rgb(232,125,30)" rx="2" ry="2" />
<text  x="1188.61" y="287.5" ></text>
</g>
<g >
<title>runtime.(*fixalloc).alloc (16 samples, 0.05%)</title><rect x="1083.8" y="101" width="0.5" height="15.0" fill="rgb(218,60,14)" rx="2" ry="2" />
<text  x="1086.77" y="111.5" ></text>
</g>
<g >
<title>runtime.(*mheap).reclaim (14 samples, 0.04%)</title><rect x="1085.7" y="133" width="0.5" height="15.0" fill="rgb(224,87,20)" rx="2" ry="2" />
<text  x="1088.72" y="143.5" ></text>
</g>
<g >
<title>golang.org/x/exp/mmap.(*ReaderAt).ReadAt (533 samples, 1.55%)</title><rect x="267.4" y="277" width="18.3" height="15.0" fill="rgb(243,177,42)" rx="2" ry="2" />
<text  x="270.40" y="287.5" ></text>
</g>
<g >
<title>runtime.(*bmap).keys (31 samples, 0.09%)</title><rect x="416.2" y="277" width="1.1" height="15.0" fill="rgb(232,124,29)" rx="2" ry="2" />
<text  x="419.19" y="287.5" ></text>
</g>
<g >
<title>runtime.(*mcache).allocLarge (4 samples, 0.01%)</title><rect x="450.0" y="245" width="0.1" height="15.0" fill="rgb(253,221,53)" rx="2" ry="2" />
<text  x="452.97" y="255.5" ></text>
</g>
<g >
<title>runtime.publicationBarrier (40 samples, 0.12%)</title><rect x="1100.1" y="245" width="1.4" height="15.0" fill="rgb(226,99,23)" rx="2" ry="2" />
<text  x="1103.14" y="255.5" ></text>
</g>
<g >
<title>runtime.memmove (1,444 samples, 4.20%)</title><rect x="1101.5" y="261" width="49.6" height="15.0" fill="rgb(232,127,30)" rx="2" ry="2" />
<text  x="1104.51" y="271.5" >runti..</text>
</g>
<g >
<title>main.(*Measurements).Add (1,349 samples, 3.92%)</title><rect x="10.0" y="293" width="46.3" height="15.0" fill="rgb(219,67,16)" rx="2" ry="2" />
<text  x="13.00" y="303.5" >main..</text>
</g>
<g >
<title>runtime.(*sweepLocked).sweep.(*mheap).freeSpan.func3 (22 samples, 0.06%)</title><rect x="1187.4" y="229" width="0.7" height="15.0" fill="rgb(214,43,10)" rx="2" ry="2" />
<text  x="1190.39" y="239.5" ></text>
</g>
<g >
<title>runtime.alignUp (235 samples, 0.68%)</title><rect x="941.0" y="261" width="8.0" height="15.0" fill="rgb(228,106,25)" rx="2" ry="2" />
<text  x="943.98" y="271.5" ></text>
</g>
<g >
<title>aeshashbody (1,229 samples, 3.57%)</title><rect x="547.0" y="261" width="42.2" height="15.0" fill="rgb(250,210,50)" rx="2" ry="2" />
<text  x="550.04" y="271.5" >aes..</text>
</g>
<g >
<title>memeqbody (601 samples, 1.75%)</title><rect x="589.2" y="261" width="20.7" height="15.0" fill="rgb(242,173,41)" rx="2" ry="2" />
<text  x="592.22" y="271.5" ></text>
</g>
<g >
<title>runtime.newAllocBits (5 samples, 0.01%)</title><rect x="1085.6" y="117" width="0.1" height="15.0" fill="rgb(228,110,26)" rx="2" ry="2" />
<text  x="1088.55" y="127.5" ></text>
</g>
<g >
<title>memeqbody (1,199 samples, 3.49%)</title><rect x="810.1" y="261" width="41.2" height="15.0" fill="rgb(242,173,41)" rx="2" ry="2" />
<text  x="813.10" y="271.5" >mem..</text>
</g>
<g >
<title>runtime.suspendG (8 samples, 0.02%)</title><rect x="450.1" y="117" width="0.3" height="15.0" fill="rgb(246,191,45)" rx="2" ry="2" />
<text  x="453.11" y="127.5" ></text>
</g>
<g >
<title>runtime.asyncPreempt (4 samples, 0.01%)</title><rect x="444.5" y="277" width="0.1" height="15.0" fill="rgb(243,174,41)" rx="2" ry="2" />
<text  x="447.51" y="287.5" ></text>
</g>
<g >
<title>runtime.(*mspan).nextFreeIndex (22 samples, 0.06%)</title><rect x="1087.6" y="229" width="0.8" height="15.0" fill="rgb(243,175,41)" rx="2" ry="2" />
<text  x="1090.65" y="239.5" ></text>
</g>
<g >
<title>runtime.(*mheap).alloc.func1 (4 samples, 0.01%)</title><rect x="450.0" y="197" width="0.1" height="15.0" fill="rgb(252,216,51)" rx="2" ry="2" />
<text  x="452.97" y="207.5" ></text>
</g>
<g >
<title>runtime.(*sweepLocked).sweep.(*mheap).freeSpan.func3 (9 samples, 0.03%)</title><rect x="1085.7" y="85" width="0.3" height="15.0" fill="rgb(214,43,10)" rx="2" ry="2" />
<text  x="1088.72" y="95.5" ></text>
</g>
<g >
<title>runtime.(*pageAlloc).scavenge (41 samples, 0.12%)</title><rect x="1185.6" y="245" width="1.4" height="15.0" fill="rgb(245,187,44)" rx="2" ry="2" />
<text  x="1188.64" y="255.5" ></text>
</g>
<g >
<title>runtime.(*mspan).refillAllocCache (3 samples, 0.01%)</title><rect x="1086.3" y="197" width="0.1" height="15.0" fill="rgb(213,39,9)" rx="2" ry="2" />
<text  x="1089.34" y="207.5" ></text>
</g>
<g >
<title>runtime.systemstack (21 samples, 0.06%)</title><rect x="1188.9" y="277" width="0.7" height="15.0" fill="rgb(206,6,1)" rx="2" ry="2" />
<text  x="1191.90" y="287.5" ></text>
</g>
<g >
<title>runtime.bucketMask (70 samples, 0.20%)</title><rect x="444.6" y="277" width="2.5" height="15.0" fill="rgb(249,206,49)" rx="2" ry="2" />
<text  x="447.65" y="287.5" ></text>
</g>
<g >
<title>runtime.memequal (121 samples, 0.35%)</title><rect x="851.3" y="261" width="4.1" height="15.0" fill="rgb(206,5,1)" rx="2" ry="2" />
<text  x="854.25" y="271.5" ></text>
</g>
<g >
<title>runtime.mapaccess1_faststr (4,755 samples, 13.83%)</title><rect x="457.2" y="277" width="163.3" height="15.0" fill="rgb(244,182,43)" rx="2" ry="2" />
<text  x="460.25" y="287.5" >runtime.mapaccess1_fa..</text>
</g>
<g >
<title>runtime.systemstack (8 samples, 0.02%)</title><rect x="450.1" y="213" width="0.3" height="15.0" fill="rgb(206,6,1)" rx="2" ry="2" />
<text  x="453.11" y="223.5" ></text>
</g>
<g >
<title>all (34,378 samples, 100%)</title><rect x="10.0" y="309" width="1180.0" height="15.0" fill="rgb(213,39,9)" rx="2" ry="2" />
<text  x="13.00" y="319.5" ></text>
</g>
<g >
<title>runtime.(*gcControllerState).heapGoalInternal (5 samples, 0.01%)</title><rect x="1100.0" y="213" width="0.1" height="15.0" fill="rgb(241,168,40)" rx="2" ry="2" />
<text  x="1102.97" y="223.5" ></text>
</g>
<g >
<title>runtime.sysUnusedOS (39 samples, 0.11%)</title><rect x="1185.7" y="181" width="1.3" height="15.0" fill="rgb(208,16,3)" rx="2" ry="2" />
<text  x="1188.71" y="191.5" ></text>
</g>
<g >
<title>runtime.releasem (228 samples, 0.66%)</title><rect x="1176.9" y="261" width="7.8" height="15.0" fill="rgb(214,42,10)" rx="2" ry="2" />
<text  x="1179.85" y="271.5" ></text>
</g>
<g >
<title>runtime.procyield (7 samples, 0.02%)</title><rect x="1085.8" y="37" width="0.2" height="15.0" fill="rgb(206,8,1)" rx="2" ry="2" />
<text  x="1088.79" y="47.5" ></text>
</g>
<g >
<title>runtime.strhash (201 samples, 0.58%)</title><rect x="613.6" y="261" width="6.9" height="15.0" fill="rgb(237,149,35)" rx="2" ry="2" />
<text  x="616.56" y="271.5" ></text>
</g>
<g >
<title>runtime.(*mheap).alloc (79 samples, 0.23%)</title><rect x="1083.6" y="181" width="2.7" height="15.0" fill="rgb(230,117,28)" rx="2" ry="2" />
<text  x="1086.59" y="191.5" ></text>
</g>
<g >
<title>internal/runtime/atomic.(*Uint32).Add (3 samples, 0.01%)</title><rect x="1082.8" y="213" width="0.1" height="15.0" fill="rgb(251,215,51)" rx="2" ry="2" />
<text  x="1085.84" y="223.5" ></text>
</g>
<g >
<title>main.ParseBestEffort (3,802 samples, 11.06%)</title><rect x="285.7" y="277" width="130.5" height="15.0" fill="rgb(234,134,32)" rx="2" ry="2" />
<text  x="288.69" y="287.5" >main.ParseBestEf..</text>
</g>
<g >
<title>runtime.getMCache (223 samples, 0.65%)</title><rect x="949.2" y="261" width="7.6" height="15.0" fill="rgb(241,168,40)" rx="2" ry="2" />
<text  x="952.18" y="271.5" ></text>
</g>
<g >
<title>runtime.(*pallocBits).summarize (8 samples, 0.02%)</title><rect x="1187.5" y="165" width="0.3" height="15.0" fill="rgb(249,206,49)" rx="2" ry="2" />
<text  x="1190.53" y="175.5" ></text>
</g>
<g >
<title>runtime.(*spanSet).pop (3 samples, 0.01%)</title><rect x="1086.4" y="197" width="0.1" height="15.0" fill="rgb(232,124,29)" rx="2" ry="2" />
<text  x="1089.44" y="207.5" ></text>
</g>
<g >
<title>runtime.lock2 (9 samples, 0.03%)</title><rect x="1085.7" y="53" width="0.3" height="15.0" fill="rgb(210,27,6)" rx="2" ry="2" />
<text  x="1088.72" y="63.5" ></text>
</g>
<g >
<title>main.aggregate (32,900 samples, 95.70%)</title><rect x="56.3" y="293" width="1129.3" height="15.0" fill="rgb(206,8,1)" rx="2" ry="2" />
<text  x="59.30" y="303.5" >main.aggregate</text>
</g>
<g >
<title>runtime.(*mheap).initSpan (33 samples, 0.10%)</title><rect x="1084.3" y="117" width="1.1" height="15.0" fill="rgb(245,187,44)" rx="2" ry="2" />
<text  x="1087.32" y="127.5" ></text>
</g>
<g >
<title>runtime.(*mheap).allocMSpanLocked (16 samples, 0.05%)</title><rect x="1083.8" y="117" width="0.5" height="15.0" fill="rgb(249,203,48)" rx="2" ry="2" />
<text  x="1086.77" y="127.5" ></text>
</g>
<g >
<title>runtime.(*bmap).overflow (20 samples, 0.06%)</title><rect x="417.3" y="277" width="0.6" height="15.0" fill="rgb(239,160,38)" rx="2" ry="2" />
<text  x="420.26" y="287.5" ></text>
</g>
<g >
<title>runtime.(*gcBitsArena).tryAlloc (7 samples, 0.02%)</title><rect x="1084.5" y="101" width="0.3" height="15.0" fill="rgb(250,210,50)" rx="2" ry="2" />
<text  x="1087.52" y="111.5" ></text>
</g>
<g >
<title>runtime.strhash (132 samples, 0.38%)</title><rect x="855.4" y="261" width="4.5" height="15.0" fill="rgb(237,149,35)" rx="2" ry="2" />
<text  x="858.41" y="271.5" ></text>
</g>
<g >
<title>runtime.(*mspan).init (17 samples, 0.05%)</title><rect x="1084.8" y="101" width="0.6" height="15.0" fill="rgb(213,38,9)" rx="2" ry="2" />
<text  x="1087.80" y="111.5" ></text>
</g>
<g >
<title>runtime.(*mspan).refillAllocCache (8 samples, 0.02%)</title><rect x="1088.1" y="213" width="0.3" height="15.0" fill="rgb(213,39,9)" rx="2" ry="2" />
<text  x="1091.13" y="223.5" ></text>
</g>
<g >
<title>internal/runtime/atomic.(*Uint32).Add (3 samples, 0.01%)</title><rect x="1083.4" y="197" width="0.1" height="15.0" fill="rgb(251,215,51)" rx="2" ry="2" />
<text  x="1086.35" y="207.5" ></text>
</g>
<g >
<title>runtime.lock2 (3 samples, 0.01%)</title><rect x="1086.1" y="101" width="0.1" height="15.0" fill="rgb(210,27,6)" rx="2" ry="2" />
<text  x="1089.07" y="111.5" ></text>
</g>
<g >
<title>runtime.(*scavengerState).init.func2 (42 samples, 0.12%)</title><rect x="1185.6" y="261" width="1.4" height="15.0" fill="rgb(233,131,31)" rx="2" ry="2" />
<text  x="1188.61" y="271.5" ></text>
</g>
<g >
<title>runtime.(*mcache).refill (155 samples, 0.45%)</title><rect x="1082.3" y="229" width="5.3" height="15.0" fill="rgb(232,124,29)" rx="2" ry="2" />
<text  x="1085.32" y="239.5" ></text>
</g>
<g >
<title>runtime.(*mheap).freeSpanLocked (19 samples, 0.06%)</title><rect x="1187.4" y="213" width="0.7" height="15.0" fill="rgb(224,91,21)" rx="2" ry="2" />
<text  x="1190.43" y="223.5" ></text>
</g>
<g >
<title>runtime.divRoundUp (3 samples, 0.01%)</title><rect x="949.1" y="261" width="0.1" height="15.0" fill="rgb(211,27,6)" rx="2" ry="2" />
<text  x="952.08" y="271.5" ></text>
</g>
<g >
<title>runtime.mallocgc (4,214 samples, 12.26%)</title><rect x="956.9" y="261" width="144.6" height="15.0" fill="rgb(241,169,40)" rx="2" ry="2" />
<text  x="959.87" y="271.5" >runtime.mallocgc</text>
</g>
<g >
<title>runtime.systemstack (3 samples, 0.01%)</title><rect x="1189.9" y="293" width="0.1" height="15.0" fill="rgb(206,6,1)" rx="2" ry="2" />
<text  x="1192.86" y="303.5" ></text>
</g>
<g >
<title>runtime.sysUnused (39 samples, 0.11%)</title><rect x="1185.7" y="197" width="1.3" height="15.0" fill="rgb(205,0,0)" rx="2" ry="2" />
<text  x="1188.71" y="207.5" ></text>
</g>
<g >
<title>runtime.(*mcentral).cacheSpan (112 samples, 0.33%)</title><rect x="1083.3" y="213" width="3.9" height="15.0" fill="rgb(244,179,42)" rx="2" ry="2" />
<text  x="1086.32" y="223.5" ></text>
</g>
<g >
<title>internal/runtime/atomic.(*Uint32).Add (4 samples, 0.01%)</title><rect x="1188.2" y="245" width="0.1" height="15.0" fill="rgb(251,215,51)" rx="2" ry="2" />
<text  x="1191.18" y="255.5" ></text>
</g>
<g >
<title>runtime.memmove (533 samples, 1.55%)</title><rect x="267.4" y="261" width="18.3" height="15.0" fill="rgb(232,127,30)" rx="2" ry="2" />
<text  x="270.40" y="271.5" ></text>
</g>
<g >
<title>runtime.(*mheap).freeSpan (22 samples, 0.06%)</title><rect x="1187.4" y="261" width="0.7" height="15.0" fill="rgb(212,32,7)" rx="2" ry="2" />
<text  x="1190.39" y="271.5" ></text>
</g>
<g >
<title>runtime.deductAssistCredit (331 samples, 0.96%)</title><rect x="1088.4" y="245" width="11.4" height="15.0" fill="rgb(218,63,15)" rx="2" ry="2" />
<text  x="1091.43" y="255.5" ></text>
</g>
<g >
<title>runtime.systemstack (79 samples, 0.23%)</title><rect x="1083.6" y="165" width="2.7" height="15.0" fill="rgb(206,6,1)" rx="2" ry="2" />
<text  x="1086.59" y="175.5" ></text>
</g>
<g >
<title>runtime.(*mcache).nextFree (186 samples, 0.54%)</title><rect x="1082.0" y="245" width="6.4" height="15.0" fill="rgb(222,80,19)" rx="2" ry="2" />
<text  x="1085.02" y="255.5" ></text>
</g>
<g >
<title>runtime.mapassign_faststr (4 samples, 0.01%)</title><rect x="859.9" y="277" width="0.2" height="15.0" fill="rgb(238,153,36)" rx="2" ry="2" />
<text  x="862.94" y="287.5" ></text>
</g>
<g >
<title>runtime.(*gcBitsArena).tryAlloc (3 samples, 0.01%)</title><rect x="1085.6" y="101" width="0.1" height="15.0" fill="rgb(250,210,50)" rx="2" ry="2" />
<text  x="1088.55" y="111.5" ></text>
</g>
<g >
<title>runtime.(*sweepLocked).sweep (10 samples, 0.03%)</title><rect x="1086.5" y="197" width="0.4" height="15.0" fill="rgb(220,70,16)" rx="2" ry="2" />
<text  x="1089.55" y="207.5" ></text>
</g>
<g >
<title>runtime.systemstack (4 samples, 0.01%)</title><rect x="450.0" y="213" width="0.1" height="15.0" fill="rgb(206,6,1)" rx="2" ry="2" />
<text  x="452.97" y="223.5" ></text>
</g>
<g >
<title>runtime.gcBgMarkWorker (21 samples, 0.06%)</title><rect x="1188.9" y="293" width="0.7" height="15.0" fill="rgb(235,140,33)" rx="2" ry="2" />
<text  x="1191.90" y="303.5" ></text>
</g>
<g >
<title>runtime.(*mheap).nextSpanForSweep (7 samples, 0.02%)</title><rect x="1188.1" y="261" width="0.3" height="15.0" fill="rgb(235,141,33)" rx="2" ry="2" />
<text  x="1191.15" y="271.5" ></text>
</g>
<g >
<title>runtime.(*mcentral).uncacheSpan (11 samples, 0.03%)</title><rect x="1087.3" y="213" width="0.3" height="15.0" fill="rgb(227,104,24)" rx="2" ry="2" />
<text  x="1090.27" y="223.5" ></text>
</g>
<g >
<title>runtime.gcDrainMarkWorkerDedicated (21 samples, 0.06%)</title><rect x="1188.9" y="261" width="0.7" height="15.0" fill="rgb(206,5,1)" rx="2" ry="2" />
<text  x="1191.90" y="271.5" ></text>
</g>
<g >
<title>runtime.(*pageAlloc).update (10 samples, 0.03%)</title><rect x="1187.5" y="181" width="0.4" height="15.0" fill="rgb(244,180,43)" rx="2" ry="2" />
<text  x="1190.53" y="191.5" ></text>
</g>
<g >
<title>runtime.(*gcControllerState).trigger (6 samples, 0.02%)</title><rect x="1099.9" y="229" width="0.2" height="15.0" fill="rgb(237,150,35)" rx="2" ry="2" />
<text  x="1102.93" y="239.5" ></text>
</g>
<g >
<title>runtime.add (774 samples, 2.25%)</title><rect x="417.9" y="277" width="26.6" height="15.0" fill="rgb(210,26,6)" rx="2" ry="2" />
<text  x="420.94" y="287.5" >r..</text>
</g>
<g >
<title>runtime.(*mheap).alloc (4 samples, 0.01%)</title><rect x="450.0" y="229" width="0.1" height="15.0" fill="rgb(230,117,28)" rx="2" ry="2" />
<text  x="452.97" y="239.5" ></text>
</g>
<g >
<title>runtime.(*sweepLocked).sweep (12 samples, 0.03%)</title><rect x="1188.4" y="261" width="0.4" height="15.0" fill="rgb(220,70,16)" rx="2" ry="2" />
<text  x="1191.42" y="271.5" ></text>
</g>
<g >
<title>runtime.bucketShift (85 samples, 0.25%)</title><rect x="447.1" y="277" width="2.9" height="15.0" fill="rgb(213,38,9)" rx="2" ry="2" />
<text  x="450.05" y="287.5" ></text>
</g>
<g >
<title>runtime.(*mheap).reclaimChunk (10 samples, 0.03%)</title><rect x="1085.7" y="117" width="0.4" height="15.0" fill="rgb(211,31,7)" rx="2" ry="2" />
<text  x="1088.72" y="127.5" ></text>
</g>
<g >
<title>runtime.markroot (8 samples, 0.02%)</title><rect x="450.1" y="149" width="0.3" height="15.0" fill="rgb(251,212,50)" rx="2" ry="2" />
<text  x="453.11" y="159.5" ></text>
</g>
<g >
<title>runtime.bgsweep (54 samples, 0.16%)</title><rect x="1187.0" y="293" width="1.9" height="15.0" fill="rgb(240,165,39)" rx="2" ry="2" />
<text  x="1190.05" y="303.5" ></text>
</g>
</g>
</svg>
