<?xml version="1.0" standalone="no"?>
<!DOCTYPE svg PUBLIC "-//W3C//DTD SVG 1.1//EN" "http://www.w3.org/Graphics/SVG/1.1/DTD/svg11.dtd">
<svg version="1.1" width="1200" height="294" onload="init(evt)" viewBox="0 0 1200 294" xmlns="http://www.w3.org/2000/svg" xmlns:xlink="http://www.w3.org/1999/xlink">
<!-- Flame graph stack visualization. See https://github.com/brendangregg/FlameGraph for latest version, and http://www.brendangregg.com/flamegraphs.html for examples. -->
<!-- NOTES:  -->
<defs>
	<linearGradient id="background" y1="0" y2="1" x1="0" x2="0" >
		<stop stop-color="#eeeeee" offset="5%" />
		<stop stop-color="#eeeeb0" offset="95%" />
	</linearGradient>
</defs>
<style type="text/css">
	text { font-family:Verdana; font-size:12px; fill:rgb(0,0,0); }
	#search, #ignorecase { opacity:0.1; cursor:pointer; }
	#search:hover, #search.show, #ignorecase:hover, #ignorecase.show { opacity:1; }
	#subtitle { text-anchor:middle; font-color:rgb(160,160,160); }
	#title { text-anchor:middle; font-size:17px}
	#unzoom { cursor:pointer; }
	#frames > *:hover { stroke:black; stroke-width:0.5; cursor:pointer; }
	.hide { display:none; }
	.parent { opacity:0.5; }
</style>
<script type="text/ecmascript">
<![CDATA[
	"use strict";
	var details, searchbtn, unzoombtn, matchedtxt, svg, searching, currentSearchTerm, ignorecase, ignorecaseBtn;
	function init(evt) {
		details = document.getElementById("details").firstChild;
		searchbtn = document.getElementById("search");
		ignorecaseBtn = document.getElementById("ignorecase");
		unzoombtn = document.getElementById("unzoom");
		matchedtxt = document.getElementById("matched");
		svg = document.getElementsByTagName("svg")[0];
		searching = 0;
		currentSearchTerm = null;

		// use GET parameters to restore a flamegraphs state.
		var params = get_params();
		if (params.x && params.y)
			zoom(find_group(document.querySelector('[x="' + params.x + '"][y="' + params.y + '"]')));
                if (params.s) search(params.s);
	}

	// event listeners
	window.addEventListener("click", function(e) {
		var target = find_group(e.target);
		if (target) {
			if (target.nodeName == "a") {
				if (e.ctrlKey === false) return;
				e.preventDefault();
			}
			if (target.classList.contains("parent")) unzoom(true);
			zoom(target);
			if (!document.querySelector('.parent')) {
				// we have basically done a clearzoom so clear the url
				var params = get_params();
				if (params.x) delete params.x;
				if (params.y) delete params.y;
				history.replaceState(null, null, parse_params(params));
				unzoombtn.classList.add("hide");
				return;
			}

			// set parameters for zoom state
			var el = target.querySelector("rect");
			if (el && el.attributes && el.attributes.y && el.attributes._orig_x) {
				var params = get_params()
				params.x = el.attributes._orig_x.value;
				params.y = el.attributes.y.value;
				history.replaceState(null, null, parse_params(params));
			}
		}
		else if (e.target.id == "unzoom") clearzoom();
		else if (e.target.id == "search") search_prompt();
		else if (e.target.id == "ignorecase") toggle_ignorecase();
	}, false)

	// mouse-over for info
	// show
	window.addEventListener("mouseover", function(e) {
		var target = find_group(e.target);
		if (target) details.nodeValue = "Function: " + g_to_text(target);
	}, false)

	// clear
	window.addEventListener("mouseout", function(e) {
		var target = find_group(e.target);
		if (target) details.nodeValue = ' ';
	}, false)

	// ctrl-F for search
	// ctrl-I to toggle case-sensitive search
	window.addEventListener("keydown",function (e) {
		if (e.keyCode === 114 || (e.ctrlKey && e.keyCode === 70)) {
			e.preventDefault();
			search_prompt();
		}
		else if (e.ctrlKey && e.keyCode === 73) {
			e.preventDefault();
			toggle_ignorecase();
		}
	}, false)

	// functions
	function get_params() {
		var params = {};
		var paramsarr = window.location.search.substr(1).split('&');
		for (var i = 0; i < paramsarr.length; ++i) {
			var tmp = paramsarr[i].split("=");
			if (!tmp[0] || !tmp[1]) continue;
			params[tmp[0]]  = decodeURIComponent(tmp[1]);
		}
		return params;
	}
	function parse_params(params) {
		var uri = "?";
		for (var key in params) {
			uri += key + '=' + encodeURIComponent(params[key]) + '&';
		}
		if (uri.slice(-1) == "&")
			uri = uri.substring(0, uri.length - 1);
		if (uri == '?')
			uri = window.location.href.split('?')[0];
		return uri;
	}
	function find_child(node, selector) {
		var children = node.querySelectorAll(selector);
		if (children.length) return children[0];
	}
	function find_group(node) {
		var parent = node.parentElement;
		if (!parent) return;
		if (parent.id == "frames") return node;
		return find_group(parent);
	}
	function orig_save(e, attr, val) {
		if (e.attributes["_orig_" + attr] != undefined) return;
		if (e.attributes[attr] == undefined) return;
		if (val == undefined) val = e.attributes[attr].value;
		e.setAttribute("_orig_" + attr, val);
	}
	function orig_load(e, attr) {
		if (e.attributes["_orig_"+attr] == undefined) return;
		e.attributes[attr].value = e.attributes["_orig_" + attr].value;
		e.removeAttribute("_orig_"+attr);
	}
	function g_to_text(e) {
		var text = find_child(e, "title").firstChild.nodeValue;
		return (text)
	}
	function g_to_func(e) {
		var func = g_to_text(e);
		// if there's any manipulation we want to do to the function
		// name before it's searched, do it here before returning.
		return (func);
	}
	function update_text(e) {
		var r = find_child(e, "rect");
		var t = find_child(e, "text");
		var w = parseFloat(r.attributes.width.value) -3;
		var txt = find_child(e, "title").textContent.replace(/\([^(]*\)$/,"");
		t.attributes.x.value = parseFloat(r.attributes.x.value) + 3;

		// Smaller than this size won't fit anything
		if (w < 2 * 12 * 0.59) {
			t.textContent = "";
			return;
		}

		t.textContent = txt;
		var sl = t.getSubStringLength(0, txt.length);
		// check if only whitespace or if we can fit the entire string into width w
		if (/^ *$/.test(txt) || sl < w)
			return;

		// this isn't perfect, but gives a good starting point
		// and avoids calling getSubStringLength too often
		var start = Math.floor((w/sl) * txt.length);
		for (var x = start; x > 0; x = x-2) {
			if (t.getSubStringLength(0, x + 2) <= w) {
				t.textContent = txt.substring(0, x) + "..";
				return;
			}
		}
		t.textContent = "";
	}

	// zoom
	function zoom_reset(e) {
		if (e.attributes != undefined) {
			orig_load(e, "x");
			orig_load(e, "width");
		}
		if (e.childNodes == undefined) return;
		for (var i = 0, c = e.childNodes; i < c.length; i++) {
			zoom_reset(c[i]);
		}
	}
	function zoom_child(e, x, ratio) {
		if (e.attributes != undefined) {
			if (e.attributes.x != undefined) {
				orig_save(e, "x");
				e.attributes.x.value = (parseFloat(e.attributes.x.value) - x - 10) * ratio + 10;
				if (e.tagName == "text")
					e.attributes.x.value = find_child(e.parentNode, "rect[x]").attributes.x.value + 3;
			}
			if (e.attributes.width != undefined) {
				orig_save(e, "width");
				e.attributes.width.value = parseFloat(e.attributes.width.value) * ratio;
			}
		}

		if (e.childNodes == undefined) return;
		for (var i = 0, c = e.childNodes; i < c.length; i++) {
			zoom_child(c[i], x - 10, ratio);
		}
	}
	function zoom_parent(e) {
		if (e.attributes) {
			if (e.attributes.x != undefined) {
				orig_save(e, "x");
				e.attributes.x.value = 10;
			}
			if (e.attributes.width != undefined) {
				orig_save(e, "width");
				e.attributes.width.value = parseInt(svg.width.baseVal.value) - (10 * 2);
			}
		}
		if (e.childNodes == undefined) return;
		for (var i = 0, c = e.childNodes; i < c.length; i++) {
			zoom_parent(c[i]);
		}
	}
	function zoom(node) {
		var attr = find_child(node, "rect").attributes;
		var width = parseFloat(attr.width.value);
		var xmin = parseFloat(attr.x.value);
		var xmax = parseFloat(xmin + width);
		var ymin = parseFloat(attr.y.value);
		var ratio = (svg.width.baseVal.value - 2 * 10) / width;

		// XXX: Workaround for JavaScript float issues (fix me)
		var fudge = 0.0001;

		unzoombtn.classList.remove("hide");

		var el = document.getElementById("frames").children;
		for (var i = 0; i < el.length; i++) {
			var e = el[i];
			var a = find_child(e, "rect").attributes;
			var ex = parseFloat(a.x.value);
			var ew = parseFloat(a.width.value);
			var upstack;
			// Is it an ancestor
			if (0 == 0) {
				upstack = parseFloat(a.y.value) > ymin;
			} else {
				upstack = parseFloat(a.y.value) < ymin;
			}
			if (upstack) {
				// Direct ancestor
				if (ex <= xmin && (ex+ew+fudge) >= xmax) {
					e.classList.add("parent");
					zoom_parent(e);
					update_text(e);
				}
				// not in current path
				else
					e.classList.add("hide");
			}
			// Children maybe
			else {
				// no common path
				if (ex < xmin || ex + fudge >= xmax) {
					e.classList.add("hide");
				}
				else {
					zoom_child(e, xmin, ratio);
					update_text(e);
				}
			}
		}
		search();
	}
	function unzoom(dont_update_text) {
		unzoombtn.classList.add("hide");
		var el = document.getElementById("frames").children;
		for(var i = 0; i < el.length; i++) {
			el[i].classList.remove("parent");
			el[i].classList.remove("hide");
			zoom_reset(el[i]);
			if(!dont_update_text) update_text(el[i]);
		}
		search();
	}
	function clearzoom() {
		unzoom();

		// remove zoom state
		var params = get_params();
		if (params.x) delete params.x;
		if (params.y) delete params.y;
		history.replaceState(null, null, parse_params(params));
	}

	// search
	function toggle_ignorecase() {
		ignorecase = !ignorecase;
		if (ignorecase) {
			ignorecaseBtn.classList.add("show");
		} else {
			ignorecaseBtn.classList.remove("show");
		}
		reset_search();
		search();
	}
	function reset_search() {
		var el = document.querySelectorAll("#frames rect");
		for (var i = 0; i < el.length; i++) {
			orig_load(el[i], "fill")
		}
		var params = get_params();
		delete params.s;
		history.replaceState(null, null, parse_params(params));
	}
	function search_prompt() {
		if (!searching) {
			var term = prompt("Enter a search term (regexp " +
			    "allowed, eg: ^ext4_)"
			    + (ignorecase ? ", ignoring case" : "")
			    + "\nPress Ctrl-i to toggle case sensitivity", "");
			if (term != null) search(term);
		} else {
			reset_search();
			searching = 0;
			currentSearchTerm = null;
			searchbtn.classList.remove("show");
			searchbtn.firstChild.nodeValue = "Search"
			matchedtxt.classList.add("hide");
			matchedtxt.firstChild.nodeValue = ""
		}
	}
	function search(term) {
		if (term) currentSearchTerm = term;
		if (currentSearchTerm === null) return;

		var re = new RegExp(currentSearchTerm, ignorecase ? 'i' : '');
		var el = document.getElementById("frames").children;
		var matches = new Object();
		var maxwidth = 0;
		for (var i = 0; i < el.length; i++) {
			var e = el[i];
			var func = g_to_func(e);
			var rect = find_child(e, "rect");
			if (func == null || rect == null)
				continue;

			// Save max width. Only works as we have a root frame
			var w = parseFloat(rect.attributes.width.value);
			if (w > maxwidth)
				maxwidth = w;

			if (func.match(re)) {
				// highlight
				var x = parseFloat(rect.attributes.x.value);
				orig_save(rect, "fill");
				rect.attributes.fill.value = "rgb(230,0,230)";

				// remember matches
				if (matches[x] == undefined) {
					matches[x] = w;
				} else {
					if (w > matches[x]) {
						// overwrite with parent
						matches[x] = w;
					}
				}
				searching = 1;
			}
		}
		if (!searching)
			return;
		var params = get_params();
		params.s = currentSearchTerm;
		history.replaceState(null, null, parse_params(params));

		searchbtn.classList.add("show");
		searchbtn.firstChild.nodeValue = "Reset Search";

		// calculate percent matched, excluding vertical overlap
		var count = 0;
		var lastx = -1;
		var lastw = 0;
		var keys = Array();
		for (k in matches) {
			if (matches.hasOwnProperty(k))
				keys.push(k);
		}
		// sort the matched frames by their x location
		// ascending, then width descending
		keys.sort(function(a, b){
			return a - b;
		});
		// Step through frames saving only the biggest bottom-up frames
		// thanks to the sort order. This relies on the tree property
		// where children are always smaller than their parents.
		var fudge = 0.0001;	// JavaScript floating point
		for (var k in keys) {
			var x = parseFloat(keys[k]);
			var w = matches[keys[k]];
			if (x >= lastx + lastw - fudge) {
				count += w;
				lastx = x;
				lastw = w;
			}
		}
		// display matched percent
		matchedtxt.classList.remove("hide");
		var pct = 100 * count / maxwidth;
		if (pct != 100) pct = pct.toFixed(1)
		matchedtxt.firstChild.nodeValue = "Matched: " + pct + "%";
	}
]]>
</script>
<rect x="0.0" y="0" width="1200.0" height="294.0" fill="url(#background)"  />
<text id="title" x="600.00" y="24" >Flame Graph</text>
<text id="details" x="10.00" y="277" > </text>
<text id="unzoom" x="10.00" y="24" class="hide">Reset Zoom</text>
<text id="search" x="1090.00" y="24" >Search</text>
<text id="ignorecase" x="1174.00" y="24" >ic</text>
<text id="matched" x="1090.00" y="277" > </text>
<g id="frames">
<g >
<title>main.(*Measurements).Add (1,209 samples, 4.21%)</title><rect x="10.4" y="229" width="49.6" height="15.0" fill="rgb(219,67,16)" rx="2" ry="2" />
<text  x="13.37" y="239.5" >main...</text>
</g>
<g >
<title>runtime.mapaccess2_faststr (6,714 samples, 23.36%)</title><rect x="539.8" y="213" width="275.6" height="15.0" fill="rgb(238,152,36)" rx="2" ry="2" />
<text  x="542.79" y="223.5" >runtime.mapaccess2_faststr</text>
</g>
<g >
<title>runtime.nextFreeFast (769 samples, 2.68%)</title><rect x="1087.2" y="197" width="31.6" height="15.0" fill="rgb(227,102,24)" rx="2" ry="2" />
<text  x="1090.19" y="207.5" >ru..</text>
</g>
<g >
<title>runtime.(*mcentral).cacheSpan (67 samples, 0.23%)</title><rect x="1032.1" y="149" width="2.7" height="15.0" fill="rgb(244,179,42)" rx="2" ry="2" />
<text  x="1035.10" y="159.5" ></text>
</g>
<g >
<title>runtime.gcDrainN (10 samples, 0.03%)</title><rect x="1050.2" y="101" width="0.4" height="15.0" fill="rgb(229,112,26)" rx="2" ry="2" />
<text  x="1053.20" y="111.5" ></text>
</g>
<g >
<title>runtime.memclrNoHeapPointersChunked (171 samples, 0.59%)</title><rect x="351.9" y="181" width="7.0" height="15.0" fill="rgb(241,169,40)" rx="2" ry="2" />
<text  x="354.88" y="191.5" ></text>
</g>
<g >
<title>runtime.(*mheap).alloc (51 samples, 0.18%)</title><rect x="1032.3" y="117" width="2.1" height="15.0" fill="rgb(230,117,28)" rx="2" ry="2" />
<text  x="1035.30" y="127.5" ></text>
</g>
<g >
<title>runtime.(*mheap).alloc.func1 (50 samples, 0.17%)</title><rect x="1032.3" y="85" width="2.1" height="15.0" fill="rgb(252,216,51)" rx="2" ry="2" />
<text  x="1035.34" y="95.5" ></text>
</g>
<g >
<title>runtime.bucketMask (82 samples, 0.29%)</title><rect x="345.2" y="213" width="3.4" height="15.0" fill="rgb(249,206,49)" rx="2" ry="2" />
<text  x="348.18" y="223.5" ></text>
</g>
<g >
<title>runtime.gcDrain (29 samples, 0.10%)</title><rect x="1187.6" y="181" width="1.2" height="15.0" fill="rgb(233,130,31)" rx="2" ry="2" />
<text  x="1190.58" y="191.5" ></text>
</g>
<g >
<title>runtime.typePointers.nextFast (3 samples, 0.01%)</title><rect x="1188.6" y="165" width="0.2" height="15.0" fill="rgb(212,36,8)" rx="2" ry="2" />
<text  x="1191.65" y="175.5" ></text>
</g>
<g >
<title>internal/runtime/atomic.(*Uint64).Add (4 samples, 0.01%)</title><rect x="1035.4" y="117" width="0.1" height="15.0" fill="rgb(219,67,16)" rx="2" ry="2" />
<text  x="1038.38" y="127.5" ></text>
</g>
<g >
<title>runtime.growWork_faststr (3 samples, 0.01%)</title><rect x="815.6" y="197" width="0.1" height="15.0" fill="rgb(214,45,10)" rx="2" ry="2" />
<text  x="818.61" y="207.5" ></text>
</g>
<g >
<title>aeshashbody (1,160 samples, 4.04%)</title><rect x="458.7" y="197" width="47.6" height="15.0" fill="rgb(250,210,50)" rx="2" ry="2" />
<text  x="461.66" y="207.5" >aesh..</text>
</g>
<g >
<title>runtime.(*mcentral).uncacheSpan (16 samples, 0.06%)</title><rect x="1034.9" y="149" width="0.6" height="15.0" fill="rgb(227,104,24)" rx="2" ry="2" />
<text  x="1037.89" y="159.5" ></text>
</g>
<g >
<title>runtime.(*pageAlloc).free (25 samples, 0.09%)</title><rect x="1185.6" y="133" width="1.1" height="15.0" fill="rgb(247,196,46)" rx="2" ry="2" />
<text  x="1188.65" y="143.5" ></text>
</g>
<g >
<title>runtime.systemstack (3 samples, 0.01%)</title><rect x="1187.4" y="197" width="0.1" height="15.0" fill="rgb(206,6,1)" rx="2" ry="2" />
<text  x="1190.41" y="207.5" ></text>
</g>
<g >
<title>runtime.gcAssistAlloc1 (10 samples, 0.03%)</title><rect x="1050.2" y="117" width="0.4" height="15.0" fill="rgb(209,22,5)" rx="2" ry="2" />
<text  x="1053.20" y="127.5" ></text>
</g>
<g >
<title>runtime.mcall (8 samples, 0.03%)</title><rect x="1188.9" y="229" width="0.3" height="15.0" fill="rgb(213,40,9)" rx="2" ry="2" />
<text  x="1191.89" y="239.5" ></text>
</g>
<g >
<title>runtime.gopreempt_m (16 samples, 0.06%)</title><rect x="1189.2" y="213" width="0.7" height="15.0" fill="rgb(237,148,35)" rx="2" ry="2" />
<text  x="1192.22" y="223.5" ></text>
</g>
<g >
<title>runtime.(*scavengeIndex).free (3 samples, 0.01%)</title><rect x="1186.5" y="117" width="0.1" height="15.0" fill="rgb(229,112,26)" rx="2" ry="2" />
<text  x="1189.47" y="127.5" ></text>
</g>
<g >
<title>runtime.(*mheap).initSpan (29 samples, 0.10%)</title><rect x="1032.7" y="53" width="1.2" height="15.0" fill="rgb(245,187,44)" rx="2" ry="2" />
<text  x="1035.71" y="63.5" ></text>
</g>
<g >
<title>runtime.(*bmap).keys (34 samples, 0.12%)</title><rect x="311.8" y="213" width="1.4" height="15.0" fill="rgb(232,124,29)" rx="2" ry="2" />
<text  x="314.81" y="223.5" ></text>
</g>
<g >
<title>runtime.deductSweepCredit (3 samples, 0.01%)</title><rect x="1034.7" y="133" width="0.1" height="15.0" fill="rgb(211,30,7)" rx="2" ry="2" />
<text  x="1037.68" y="143.5" ></text>
</g>
<g >
<title>runtime.main (3 samples, 0.01%)</title><rect x="1188.8" y="229" width="0.1" height="15.0" fill="rgb(209,21,5)" rx="2" ry="2" />
<text  x="1191.77" y="239.5" ></text>
</g>
<g >
<title>runtime.sweepone (59 samples, 0.21%)</title><rect x="1185.0" y="213" width="2.4" height="15.0" fill="rgb(209,19,4)" rx="2" ry="2" />
<text  x="1187.99" y="223.5" ></text>
</g>
<g >
<title>runtime.(*bmap).overflow (18 samples, 0.06%)</title><rect x="313.2" y="213" width="0.7" height="15.0" fill="rgb(239,160,38)" rx="2" ry="2" />
<text  x="316.20" y="223.5" ></text>
</g>
<g >
<title>runtime.(*pageAlloc).update (18 samples, 0.06%)</title><rect x="1185.7" y="117" width="0.8" height="15.0" fill="rgb(244,180,43)" rx="2" ry="2" />
<text  x="1188.73" y="127.5" ></text>
</g>
<g >
<title>runtime.mapaccess1_faststr (4,406 samples, 15.33%)</title><rect x="358.9" y="213" width="180.9" height="15.0" fill="rgb(244,182,43)" rx="2" ry="2" />
<text  x="361.90" y="223.5" >runtime.mapaccess1_fast..</text>
</g>
<g >
<title>runtime.(*gcControllerState).trigger (7 samples, 0.02%)</title><rect x="1050.8" y="165" width="0.3" height="15.0" fill="rgb(237,150,35)" rx="2" ry="2" />
<text  x="1053.78" y="175.5" ></text>
</g>
<g >
<title>runtime.deductAssistCredit (332 samples, 1.16%)</title><rect x="1037.0" y="181" width="13.6" height="15.0" fill="rgb(218,63,15)" rx="2" ry="2" />
<text  x="1039.98" y="191.5" ></text>
</g>
<g >
<title>runtime.(*pageAlloc).scavenge (27 samples, 0.09%)</title><rect x="1183.9" y="181" width="1.1" height="15.0" fill="rgb(245,187,44)" rx="2" ry="2" />
<text  x="1186.88" y="191.5" ></text>
</g>
<g >
<title>runtime.(*mheap).allocMSpanLocked (4 samples, 0.01%)</title><rect x="1032.5" y="53" width="0.2" height="15.0" fill="rgb(249,203,48)" rx="2" ry="2" />
<text  x="1035.55" y="63.5" ></text>
</g>
<g >
<title>runtime.mapassign_faststr (8 samples, 0.03%)</title><rect x="815.4" y="213" width="0.4" height="15.0" fill="rgb(238,153,36)" rx="2" ry="2" />
<text  x="818.44" y="223.5" ></text>
</g>
<g >
<title>runtime.(*mspan).base (3 samples, 0.01%)</title><rect x="1188.3" y="149" width="0.1" height="15.0" fill="rgb(224,91,21)" rx="2" ry="2" />
<text  x="1191.28" y="159.5" ></text>
</g>
<g >
<title>runtime.bgscavenge (27 samples, 0.09%)</title><rect x="1183.9" y="229" width="1.1" height="15.0" fill="rgb(228,109,26)" rx="2" ry="2" />
<text  x="1186.88" y="239.5" ></text>
</g>
<g >
<title>runtime.lock2 (11 samples, 0.04%)</title><rect x="1189.4" y="181" width="0.5" height="15.0" fill="rgb(210,27,6)" rx="2" ry="2" />
<text  x="1192.43" y="191.5" ></text>
</g>
<g >
<title>runtime.(*scavengerState).init.func2 (27 samples, 0.09%)</title><rect x="1183.9" y="197" width="1.1" height="15.0" fill="rgb(233,131,31)" rx="2" ry="2" />
<text  x="1186.88" y="207.5" ></text>
</g>
<g >
<title>runtime.memequal (105 samples, 0.37%)</title><rect x="529.3" y="197" width="4.3" height="15.0" fill="rgb(206,5,1)" rx="2" ry="2" />
<text  x="532.32" y="207.5" ></text>
</g>
<g >
<title>runtime.(*sweepLocked).sweep (4 samples, 0.01%)</title><rect x="1034.4" y="133" width="0.2" height="15.0" fill="rgb(220,70,16)" rx="2" ry="2" />
<text  x="1037.44" y="143.5" ></text>
</g>
<g >
<title>runtime.suspendG (4 samples, 0.01%)</title><rect x="1187.7" y="133" width="0.2" height="15.0" fill="rgb(246,191,45)" rx="2" ry="2" />
<text  x="1190.74" y="143.5" ></text>
</g>
<g >
<title>runtime.scanblock (3 samples, 0.01%)</title><rect x="1187.9" y="133" width="0.1" height="15.0" fill="rgb(231,120,28)" rx="2" ry="2" />
<text  x="1190.91" y="143.5" ></text>
</g>
<g >
<title>main.aggregate (26,014 samples, 90.51%)</title><rect x="60.0" y="229" width="1068.0" height="15.0" fill="rgb(206,8,1)" rx="2" ry="2" />
<text  x="63.01" y="239.5" >main.aggregate</text>
</g>
<g >
<title>runtime.divRoundUp (5 samples, 0.02%)</title><rect x="880.7" y="197" width="0.2" height="15.0" fill="rgb(211,27,6)" rx="2" ry="2" />
<text  x="883.72" y="207.5" ></text>
</g>
<g >
<title>runtime.alignUp (275 samples, 0.96%)</title><rect x="869.4" y="197" width="11.3" height="15.0" fill="rgb(228,106,25)" rx="2" ry="2" />
<text  x="872.43" y="207.5" ></text>
</g>
<g >
<title>runtime.mallocgc (4,008 samples, 13.95%)</title><rect x="888.3" y="197" width="164.6" height="15.0" fill="rgb(241,169,40)" rx="2" ry="2" />
<text  x="891.32" y="207.5" >runtime.mallocgc</text>
</g>
<g >
<title>runtime.memmove (361 samples, 1.26%)</title><rect x="297.0" y="197" width="14.8" height="15.0" fill="rgb(232,127,30)" rx="2" ry="2" />
<text  x="299.98" y="207.5" ></text>
</g>
<g >
<title>runtime.systemstack (10 samples, 0.03%)</title><rect x="1050.2" y="149" width="0.4" height="15.0" fill="rgb(206,6,1)" rx="2" ry="2" />
<text  x="1053.20" y="159.5" ></text>
</g>
<g >
<title>runtime.procyield (3 samples, 0.01%)</title><rect x="1187.8" y="117" width="0.1" height="15.0" fill="rgb(206,8,1)" rx="2" ry="2" />
<text  x="1190.78" y="127.5" ></text>
</g>
<g >
<title>syscall.write (7 samples, 0.02%)</title><rect x="10.1" y="165" width="0.3" height="15.0" fill="rgb(252,217,51)" rx="2" ry="2" />
<text  x="13.08" y="175.5" ></text>
</g>
<g >
<title>runtime.memmove (836 samples, 2.91%)</title><rect x="1052.9" y="197" width="34.3" height="15.0" fill="rgb(232,127,30)" rx="2" ry="2" />
<text  x="1055.87" y="207.5" >ru..</text>
</g>
<g >
<title>runtime.findRunnable (4 samples, 0.01%)</title><rect x="1189.0" y="181" width="0.2" height="15.0" fill="rgb(219,64,15)" rx="2" ry="2" />
<text  x="1192.01" y="191.5" ></text>
</g>
<g >
<title>internal/runtime/atomic.(*Uint32).Add (3 samples, 0.01%)</title><rect x="1034.4" y="117" width="0.2" height="15.0" fill="rgb(251,215,51)" rx="2" ry="2" />
<text  x="1037.44" y="127.5" ></text>
</g>
<g >
<title>runtime.sysUnusedOS (24 samples, 0.08%)</title><rect x="1184.0" y="117" width="1.0" height="15.0" fill="rgb(208,16,3)" rx="2" ry="2" />
<text  x="1186.96" y="127.5" ></text>
</g>
<g >
<title>runtime.gcAssistAlloc (12 samples, 0.04%)</title><rect x="1050.1" y="165" width="0.5" height="15.0" fill="rgb(226,98,23)" rx="2" ry="2" />
<text  x="1053.12" y="175.5" ></text>
</g>
<g >
<title>runtime.(*mcache).refill (98 samples, 0.34%)</title><rect x="1031.6" y="165" width="4.0" height="15.0" fill="rgb(232,124,29)" rx="2" ry="2" />
<text  x="1034.56" y="175.5" ></text>
</g>
<g >
<title>runtime.procyield (8 samples, 0.03%)</title><rect x="1189.5" y="165" width="0.4" height="15.0" fill="rgb(206,8,1)" rx="2" ry="2" />
<text  x="1192.55" y="175.5" ></text>
</g>
<g >
<title>runtime.gcMarkDone.forEachP.func5 (3 samples, 0.01%)</title><rect x="1187.4" y="181" width="0.1" height="15.0" fill="rgb(239,156,37)" rx="2" ry="2" />
<text  x="1190.41" y="191.5" ></text>
</g>
<g >
<title>runtime.(*mcache).allocLarge (3 samples, 0.01%)</title><rect x="351.8" y="181" width="0.1" height="15.0" fill="rgb(253,221,53)" rx="2" ry="2" />
<text  x="354.75" y="191.5" ></text>
</g>
<g >
<title>internal/runtime/syscall.Syscall6 (7 samples, 0.02%)</title><rect x="10.1" y="117" width="0.3" height="15.0" fill="rgb(210,24,5)" rx="2" ry="2" />
<text  x="13.08" y="127.5" ></text>
</g>
<g >
<title>runtime.(*fixalloc).alloc (4 samples, 0.01%)</title><rect x="1032.5" y="37" width="0.2" height="15.0" fill="rgb(218,60,14)" rx="2" ry="2" />
<text  x="1035.55" y="47.5" ></text>
</g>
<g >
<title>runtime.sysUnused (24 samples, 0.08%)</title><rect x="1184.0" y="133" width="1.0" height="15.0" fill="rgb(205,0,0)" rx="2" ry="2" />
<text  x="1186.96" y="143.5" ></text>
</g>
<g >
<title>runtime.(*sweepLocked).sweep (7 samples, 0.02%)</title><rect x="1187.1" y="197" width="0.3" height="15.0" fill="rgb(220,70,16)" rx="2" ry="2" />
<text  x="1190.09" y="207.5" ></text>
</g>
<g >
<title>runtime.(*pageAlloc).scavenge.func1 (26 samples, 0.09%)</title><rect x="1183.9" y="149" width="1.1" height="15.0" fill="rgb(217,56,13)" rx="2" ry="2" />
<text  x="1186.92" y="159.5" ></text>
</g>
<g >
<title>runtime.slicebytetostring (7,582 samples, 26.38%)</title><rect x="815.9" y="213" width="311.3" height="15.0" fill="rgb(252,219,52)" rx="2" ry="2" />
<text  x="818.94" y="223.5" >runtime.slicebytetostring</text>
</g>
<g >
<title>runtime.mallocgc (174 samples, 0.61%)</title><rect x="351.8" y="197" width="7.1" height="15.0" fill="rgb(241,169,40)" rx="2" ry="2" />
<text  x="354.75" y="207.5" ></text>
</g>
<g >
<title>all (28,741 samples, 100%)</title><rect x="10.0" y="245" width="1180.0" height="15.0" fill="rgb(213,39,9)" rx="2" ry="2" />
<text  x="13.00" y="255.5" ></text>
</g>
<g >
<title>runtime.(*sweepLocked).sweep.(*mheap).freeSpan.func3 (37 samples, 0.13%)</title><rect x="1185.3" y="165" width="1.5" height="15.0" fill="rgb(214,43,10)" rx="2" ry="2" />
<text  x="1188.28" y="175.5" ></text>
</g>
<g >
<title>runtime.gcDrainMarkWorkerDedicated (29 samples, 0.10%)</title><rect x="1187.6" y="197" width="1.2" height="15.0" fill="rgb(206,5,1)" rx="2" ry="2" />
<text  x="1190.58" y="207.5" ></text>
</g>
<g >
<title>runtime.(*mheap).nextSpanForSweep (4 samples, 0.01%)</title><rect x="1186.8" y="197" width="0.2" height="15.0" fill="rgb(235,141,33)" rx="2" ry="2" />
<text  x="1189.80" y="207.5" ></text>
</g>
<g >
<title>runtime.systemstack (27 samples, 0.09%)</title><rect x="1183.9" y="165" width="1.1" height="15.0" fill="rgb(206,6,1)" rx="2" ry="2" />
<text  x="1186.88" y="175.5" ></text>
</g>
<g >
<title>runtime.strhash (150 samples, 0.52%)</title><rect x="533.6" y="197" width="6.2" height="15.0" fill="rgb(237,149,35)" rx="2" ry="2" />
<text  x="536.63" y="207.5" ></text>
</g>
<g >
<title>runtime.(*mheap).freeSpanLocked (31 samples, 0.11%)</title><rect x="1185.4" y="149" width="1.3" height="15.0" fill="rgb(224,91,21)" rx="2" ry="2" />
<text  x="1188.44" y="159.5" ></text>
</g>
<g >
<title>runtime.forEachPInternal (3 samples, 0.01%)</title><rect x="1187.4" y="165" width="0.1" height="15.0" fill="rgb(211,28,6)" rx="2" ry="2" />
<text  x="1190.41" y="175.5" ></text>
</g>
<g >
<title>runtime.releasem (206 samples, 0.72%)</title><rect x="1118.8" y="197" width="8.4" height="15.0" fill="rgb(214,42,10)" rx="2" ry="2" />
<text  x="1121.77" y="207.5" ></text>
</g>
<g >
<title>runtime.publicationBarrier (39 samples, 0.14%)</title><rect x="1051.3" y="181" width="1.6" height="15.0" fill="rgb(226,99,23)" rx="2" ry="2" />
<text  x="1054.27" y="191.5" ></text>
</g>
<g >
<title>runtime.(*mcache).nextFree (146 samples, 0.51%)</title><rect x="1030.8" y="181" width="6.0" height="15.0" fill="rgb(222,80,19)" rx="2" ry="2" />
<text  x="1033.78" y="191.5" ></text>
</g>
<g >
<title>runtime.tophash (20 samples, 0.07%)</title><rect x="1127.2" y="213" width="0.8" height="15.0" fill="rgb(226,97,23)" rx="2" ry="2" />
<text  x="1130.22" y="223.5" ></text>
</g>
<g >
<title>fmt.Printf (9 samples, 0.03%)</title><rect x="10.0" y="229" width="0.4" height="15.0" fill="rgb(253,223,53)" rx="2" ry="2" />
<text  x="13.00" y="239.5" ></text>
</g>
<g >
<title>runtime.findRunnable (3 samples, 0.01%)</title><rect x="1189.2" y="165" width="0.1" height="15.0" fill="rgb(219,64,15)" rx="2" ry="2" />
<text  x="1192.22" y="175.5" ></text>
</g>
<g >
<title>runtime.systemstack (37 samples, 0.13%)</title><rect x="1185.3" y="181" width="1.5" height="15.0" fill="rgb(206,6,1)" rx="2" ry="2" />
<text  x="1188.28" y="191.5" ></text>
</g>
<g >
<title>runtime.bgsweep (59 samples, 0.21%)</title><rect x="1185.0" y="229" width="2.4" height="15.0" fill="rgb(240,165,39)" rx="2" ry="2" />
<text  x="1187.99" y="239.5" ></text>
</g>
<g >
<title>runtime.getMCache (179 samples, 0.62%)</title><rect x="880.9" y="197" width="7.4" height="15.0" fill="rgb(241,168,40)" rx="2" ry="2" />
<text  x="883.93" y="207.5" ></text>
</g>
<g >
<title>runtime.(*mspan).init (10 samples, 0.03%)</title><rect x="1033.5" y="37" width="0.4" height="15.0" fill="rgb(213,38,9)" rx="2" ry="2" />
<text  x="1036.49" y="47.5" ></text>
</g>
<g >
<title>runtime.mapaccess2_faststr (5 samples, 0.02%)</title><rect x="1128.2" y="213" width="0.2" height="15.0" fill="rgb(238,152,36)" rx="2" ry="2" />
<text  x="1131.17" y="223.5" ></text>
</g>
<g >
<title>runtime.(*mspan).refillAllocCache (9 samples, 0.03%)</title><rect x="1036.4" y="149" width="0.4" height="15.0" fill="rgb(213,39,9)" rx="2" ry="2" />
<text  x="1039.41" y="159.5" ></text>
</g>
<g >
<title>runtime.(*mheap).tryAllocMSpan (4 samples, 0.01%)</title><rect x="1034.2" y="69" width="0.1" height="15.0" fill="rgb(225,94,22)" rx="2" ry="2" />
<text  x="1037.15" y="79.5" ></text>
</g>
<g >
<title>runtime.(*mheap).allocSpan (3 samples, 0.01%)</title><rect x="351.8" y="117" width="0.1" height="15.0" fill="rgb(233,132,31)" rx="2" ry="2" />
<text  x="354.75" y="127.5" ></text>
</g>
<g >
<title>runtime.scanobject (15 samples, 0.05%)</title><rect x="1188.0" y="165" width="0.6" height="15.0" fill="rgb(233,131,31)" rx="2" ry="2" />
<text  x="1191.03" y="175.5" ></text>
</g>
<g >
<title>runtime.bucketShift (77 samples, 0.27%)</title><rect x="348.6" y="213" width="3.1" height="15.0" fill="rgb(213,38,9)" rx="2" ry="2" />
<text  x="351.55" y="223.5" ></text>
</g>
<g >
<title>main.main (3 samples, 0.01%)</title><rect x="1188.8" y="213" width="0.1" height="15.0" fill="rgb(227,101,24)" rx="2" ry="2" />
<text  x="1191.77" y="223.5" ></text>
</g>
<g >
<title>runtime.gcAssistAlloc.func1 (10 samples, 0.03%)</title><rect x="1050.2" y="133" width="0.4" height="15.0" fill="rgb(247,197,47)" rx="2" ry="2" />
<text  x="1053.20" y="143.5" ></text>
</g>
<g >
<title>runtime.(*scavengerState).run (27 samples, 0.09%)</title><rect x="1183.9" y="213" width="1.1" height="15.0" fill="rgb(232,125,30)" rx="2" ry="2" />
<text  x="1186.88" y="223.5" ></text>
</g>
<g >
<title>runtime.(*pallocBits).summarize (12 samples, 0.04%)</title><rect x="1185.8" y="101" width="0.5" height="15.0" fill="rgb(249,206,49)" rx="2" ry="2" />
<text  x="1188.77" y="111.5" ></text>
</g>
<g >
<title>aeshashbody (1,193 samples, 4.15%)</title><rect x="715.6" y="197" width="49.0" height="15.0" fill="rgb(250,210,50)" rx="2" ry="2" />
<text  x="718.59" y="207.5" >aesh..</text>
</g>
<g >
<title>internal/runtime/atomic.(*Uint64).Add (3 samples, 0.01%)</title><rect x="1032.0" y="149" width="0.1" height="15.0" fill="rgb(219,67,16)" rx="2" ry="2" />
<text  x="1034.97" y="159.5" ></text>
</g>
<g >
<title>main.parseTempToInt (1,349 samples, 4.69%)</title><rect x="1128.5" y="229" width="55.4" height="15.0" fill="rgb(251,211,50)" rx="2" ry="2" />
<text  x="1131.50" y="239.5" >main...</text>
</g>
<g >
<title>runtime.markroot (11 samples, 0.04%)</title><rect x="1187.6" y="165" width="0.4" height="15.0" fill="rgb(251,212,50)" rx="2" ry="2" />
<text  x="1190.58" y="175.5" ></text>
</g>
<g >
<title>runtime.(*spanSet).push (14 samples, 0.05%)</title><rect x="1035.0" y="133" width="0.5" height="15.0" fill="rgb(252,216,51)" rx="2" ry="2" />
<text  x="1037.97" y="143.5" ></text>
</g>
<g >
<title>runtime.memclrNoHeapPointers (171 samples, 0.59%)</title><rect x="351.9" y="165" width="7.0" height="15.0" fill="rgb(252,219,52)" rx="2" ry="2" />
<text  x="354.88" y="175.5" ></text>
</g>
<g >
<title>runtime.pageIndexOf (3 samples, 0.01%)</title><rect x="1051.1" y="181" width="0.2" height="15.0" fill="rgb(236,144,34)" rx="2" ry="2" />
<text  x="1054.15" y="191.5" ></text>
</g>
<g >
<title>runtime.(*mcentral).grow (53 samples, 0.18%)</title><rect x="1032.2" y="133" width="2.2" height="15.0" fill="rgb(233,130,31)" rx="2" ry="2" />
<text  x="1035.22" y="143.5" ></text>
</g>
<g >
<title>runtime.memequal (108 samples, 0.38%)</title><rect x="805.6" y="197" width="4.4" height="15.0" fill="rgb(206,5,1)" rx="2" ry="2" />
<text  x="808.59" y="207.5" ></text>
</g>
<g >
<title>runtime.gcTrigger.test (10 samples, 0.03%)</title><rect x="1050.7" y="181" width="0.4" height="15.0" fill="rgb(206,6,1)" rx="2" ry="2" />
<text  x="1053.65" y="191.5" ></text>
</g>
<g >
<title>golang.org/x/exp/mmap.(*ReaderAt).ReadAt (361 samples, 1.26%)</title><rect x="297.0" y="213" width="14.8" height="15.0" fill="rgb(243,177,42)" rx="2" ry="2" />
<text  x="299.98" y="223.5" ></text>
</g>
<g >
<title>runtime.asyncPreempt (8 samples, 0.03%)</title><rect x="344.9" y="213" width="0.3" height="15.0" fill="rgb(243,174,41)" rx="2" ry="2" />
<text  x="347.86" y="223.5" ></text>
</g>
<g >
<title>runtime.gcBgMarkWorker (33 samples, 0.11%)</title><rect x="1187.4" y="229" width="1.4" height="15.0" fill="rgb(235,140,33)" rx="2" ry="2" />
<text  x="1190.41" y="239.5" ></text>
</g>
<g >
<title>runtime.scanobject (9 samples, 0.03%)</title><rect x="1050.2" y="85" width="0.4" height="15.0" fill="rgb(233,131,31)" rx="2" ry="2" />
<text  x="1053.24" y="95.5" ></text>
</g>
<g >
<title>runtime.(*mheap).freeSpan (37 samples, 0.13%)</title><rect x="1185.3" y="197" width="1.5" height="15.0" fill="rgb(212,32,7)" rx="2" ry="2" />
<text  x="1188.28" y="207.5" ></text>
</g>
<g >
<title>runtime.makeslice (174 samples, 0.61%)</title><rect x="351.8" y="213" width="7.1" height="15.0" fill="rgb(244,180,43)" rx="2" ry="2" />
<text  x="354.75" y="223.5" ></text>
</g>
<g >
<title>memeqbody (561 samples, 1.95%)</title><rect x="506.3" y="197" width="23.0" height="15.0" fill="rgb(242,173,41)" rx="2" ry="2" />
<text  x="509.29" y="207.5" >m..</text>
</g>
<g >
<title>runtime.newobject (4 samples, 0.01%)</title><rect x="815.8" y="213" width="0.1" height="15.0" fill="rgb(221,75,18)" rx="2" ry="2" />
<text  x="818.77" y="223.5" ></text>
</g>
<g >
<title>runtime.acquirem (414 samples, 1.44%)</title><rect x="852.4" y="197" width="17.0" height="15.0" fill="rgb(206,5,1)" rx="2" ry="2" />
<text  x="855.43" y="207.5" ></text>
</g>
<g >
<title>runtime.goschedImpl (5 samples, 0.02%)</title><rect x="1189.2" y="197" width="0.2" height="15.0" fill="rgb(247,194,46)" rx="2" ry="2" />
<text  x="1192.22" y="207.5" ></text>
</g>
<g >
<title>runtime.(*mheap).alloc (3 samples, 0.01%)</title><rect x="351.8" y="165" width="0.1" height="15.0" fill="rgb(230,117,28)" rx="2" ry="2" />
<text  x="354.75" y="175.5" ></text>
</g>
<g >
<title>runtime.(*gcBitsArena).tryAlloc (13 samples, 0.05%)</title><rect x="1033.0" y="37" width="0.5" height="15.0" fill="rgb(250,210,50)" rx="2" ry="2" />
<text  x="1035.96" y="47.5" ></text>
</g>
<g >
<title>runtime.(*mheap).alloc.func1 (3 samples, 0.01%)</title><rect x="351.8" y="133" width="0.1" height="15.0" fill="rgb(252,216,51)" rx="2" ry="2" />
<text  x="354.75" y="143.5" ></text>
</g>
<g >
<title>memeqbody (999 samples, 3.48%)</title><rect x="764.6" y="197" width="41.0" height="15.0" fill="rgb(242,173,41)" rx="2" ry="2" />
<text  x="767.57" y="207.5" >mem..</text>
</g>
<g >
<title>runtime.morestack (16 samples, 0.06%)</title><rect x="1189.2" y="229" width="0.7" height="15.0" fill="rgb(219,67,16)" rx="2" ry="2" />
<text  x="1192.22" y="239.5" ></text>
</g>
<g >
<title>runtime.markroot.func1 (8 samples, 0.03%)</title><rect x="1187.6" y="149" width="0.3" height="15.0" fill="rgb(222,80,19)" rx="2" ry="2" />
<text  x="1190.58" y="159.5" ></text>
</g>
<g >
<title>runtime.forEachP (3 samples, 0.01%)</title><rect x="1187.4" y="213" width="0.1" height="15.0" fill="rgb(216,52,12)" rx="2" ry="2" />
<text  x="1190.41" y="223.5" ></text>
</g>
<g >
<title>os.(*File).write (7 samples, 0.02%)</title><rect x="10.1" y="197" width="0.3" height="15.0" fill="rgb(248,201,48)" rx="2" ry="2" />
<text  x="13.08" y="207.5" ></text>
</g>
<g >
<title>runtime.systemstack (29 samples, 0.10%)</title><rect x="1187.6" y="213" width="1.2" height="15.0" fill="rgb(206,6,1)" rx="2" ry="2" />
<text  x="1190.58" y="223.5" ></text>
</g>
<g >
<title>runtime.(*mheap).allocSpan (44 samples, 0.15%)</title><rect x="1032.3" y="69" width="1.9" height="15.0" fill="rgb(233,132,31)" rx="2" ry="2" />
<text  x="1035.34" y="79.5" ></text>
</g>
<g >
<title>runtime.lockWithRank (11 samples, 0.04%)</title><rect x="1189.4" y="197" width="0.5" height="15.0" fill="rgb(214,42,10)" rx="2" ry="2" />
<text  x="1192.43" y="207.5" ></text>
</g>
<g >
<title>runtime.strhash (132 samples, 0.46%)</title><rect x="810.0" y="197" width="5.4" height="15.0" fill="rgb(237,149,35)" rx="2" ry="2" />
<text  x="813.02" y="207.5" ></text>
</g>
<g >
<title>syscall.Syscall (7 samples, 0.02%)</title><rect x="10.1" y="149" width="0.3" height="15.0" fill="rgb(215,47,11)" rx="2" ry="2" />
<text  x="13.08" y="159.5" ></text>
</g>
<g >
<title>runtime.add (753 samples, 2.62%)</title><rect x="313.9" y="213" width="31.0" height="15.0" fill="rgb(210,26,6)" rx="2" ry="2" />
<text  x="316.94" y="223.5" >ru..</text>
</g>
<g >
<title>runtime.park_m (8 samples, 0.03%)</title><rect x="1188.9" y="213" width="0.3" height="15.0" fill="rgb(233,132,31)" rx="2" ry="2" />
<text  x="1191.89" y="223.5" ></text>
</g>
<g >
<title>fmt.Fprintf (9 samples, 0.03%)</title><rect x="10.0" y="213" width="0.4" height="15.0" fill="rgb(244,182,43)" rx="2" ry="2" />
<text  x="13.00" y="223.5" ></text>
</g>
<g >
<title>runtime.systemstack (51 samples, 0.18%)</title><rect x="1032.3" y="101" width="2.1" height="15.0" fill="rgb(206,6,1)" rx="2" ry="2" />
<text  x="1035.30" y="111.5" ></text>
</g>
<g >
<title>runtime.markrootBlock (3 samples, 0.01%)</title><rect x="1187.9" y="149" width="0.1" height="15.0" fill="rgb(229,111,26)" rx="2" ry="2" />
<text  x="1190.91" y="159.5" ></text>
</g>
<g >
<title>main.merger (11 samples, 0.04%)</title><rect x="1128.0" y="229" width="0.5" height="15.0" fill="rgb(249,204,48)" rx="2" ry="2" />
<text  x="1131.05" y="239.5" ></text>
</g>
<g >
<title>syscall.Write (7 samples, 0.02%)</title><rect x="10.1" y="181" width="0.3" height="15.0" fill="rgb(208,18,4)" rx="2" ry="2" />
<text  x="13.08" y="191.5" ></text>
</g>
<g >
<title>runtime.schedule (6 samples, 0.02%)</title><rect x="1189.0" y="197" width="0.2" height="15.0" fill="rgb(220,72,17)" rx="2" ry="2" />
<text  x="1191.97" y="207.5" ></text>
</g>
<g >
<title>runtime.(*mspan).nextFreeIndex (29 samples, 0.10%)</title><rect x="1035.6" y="165" width="1.2" height="15.0" fill="rgb(243,175,41)" rx="2" ry="2" />
<text  x="1038.59" y="175.5" ></text>
</g>
<g >
<title>runtime.findObject (3 samples, 0.01%)</title><rect x="1188.4" y="149" width="0.1" height="15.0" fill="rgb(216,51,12)" rx="2" ry="2" />
<text  x="1191.40" y="159.5" ></text>
</g>
<g >
<title>syscall.RawSyscall6 (7 samples, 0.02%)</title><rect x="10.1" y="133" width="0.3" height="15.0" fill="rgb(241,167,40)" rx="2" ry="2" />
<text  x="13.08" y="143.5" ></text>
</g>
<g >
<title>runtime.systemstack (3 samples, 0.01%)</title><rect x="351.8" y="149" width="0.1" height="15.0" fill="rgb(206,6,1)" rx="2" ry="2" />
<text  x="354.75" y="159.5" ></text>
</g>
<g >
<title>runtime.schedule (5 samples, 0.02%)</title><rect x="1189.2" y="181" width="0.2" height="15.0" fill="rgb(220,72,17)" rx="2" ry="2" />
<text  x="1192.22" y="191.5" ></text>
</g>
<g >
<title>runtime.madvise (24 samples, 0.08%)</title><rect x="1184.0" y="101" width="1.0" height="15.0" fill="rgb(216,54,12)" rx="2" ry="2" />
<text  x="1186.96" y="111.5" ></text>
</g>
</g>
</svg>
