<?xml version="1.0" standalone="no"?>
<!DOCTYPE svg PUBLIC "-//W3C//DTD SVG 1.1//EN" "http://www.w3.org/Graphics/SVG/1.1/DTD/svg11.dtd">
<svg version="1.1" width="1200" height="246" onload="init(evt)" viewBox="0 0 1200 246" xmlns="http://www.w3.org/2000/svg" xmlns:xlink="http://www.w3.org/1999/xlink">
<!-- Flame graph stack visualization. See https://github.com/brendangregg/FlameGraph for latest version, and http://www.brendangregg.com/flamegraphs.html for examples. -->
<!-- NOTES:  -->
<defs>
	<linearGradient id="background" y1="0" y2="1" x1="0" x2="0" >
		<stop stop-color="#eeeeee" offset="5%" />
		<stop stop-color="#eeeeb0" offset="95%" />
	</linearGradient>
</defs>
<style type="text/css">
	text { font-family:Verdana; font-size:12px; fill:rgb(0,0,0); }
	#search, #ignorecase { opacity:0.1; cursor:pointer; }
	#search:hover, #search.show, #ignorecase:hover, #ignorecase.show { opacity:1; }
	#subtitle { text-anchor:middle; font-color:rgb(160,160,160); }
	#title { text-anchor:middle; font-size:17px}
	#unzoom { cursor:pointer; }
	#frames > *:hover { stroke:black; stroke-width:0.5; cursor:pointer; }
	.hide { display:none; }
	.parent { opacity:0.5; }
</style>
<script type="text/ecmascript">
<![CDATA[
	"use strict";
	var details, searchbtn, unzoombtn, matchedtxt, svg, searching, currentSearchTerm, ignorecase, ignorecaseBtn;
	function init(evt) {
		details = document.getElementById("details").firstChild;
		searchbtn = document.getElementById("search");
		ignorecaseBtn = document.getElementById("ignorecase");
		unzoombtn = document.getElementById("unzoom");
		matchedtxt = document.getElementById("matched");
		svg = document.getElementsByTagName("svg")[0];
		searching = 0;
		currentSearchTerm = null;

		// use GET parameters to restore a flamegraphs state.
		var params = get_params();
		if (params.x && params.y)
			zoom(find_group(document.querySelector('[x="' + params.x + '"][y="' + params.y + '"]')));
                if (params.s) search(params.s);
	}

	// event listeners
	window.addEventListener("click", function(e) {
		var target = find_group(e.target);
		if (target) {
			if (target.nodeName == "a") {
				if (e.ctrlKey === false) return;
				e.preventDefault();
			}
			if (target.classList.contains("parent")) unzoom(true);
			zoom(target);
			if (!document.querySelector('.parent')) {
				// we have basically done a clearzoom so clear the url
				var params = get_params();
				if (params.x) delete params.x;
				if (params.y) delete params.y;
				history.replaceState(null, null, parse_params(params));
				unzoombtn.classList.add("hide");
				return;
			}

			// set parameters for zoom state
			var el = target.querySelector("rect");
			if (el && el.attributes && el.attributes.y && el.attributes._orig_x) {
				var params = get_params()
				params.x = el.attributes._orig_x.value;
				params.y = el.attributes.y.value;
				history.replaceState(null, null, parse_params(params));
			}
		}
		else if (e.target.id == "unzoom") clearzoom();
		else if (e.target.id == "search") search_prompt();
		else if (e.target.id == "ignorecase") toggle_ignorecase();
	}, false)

	// mouse-over for info
	// show
	window.addEventListener("mouseover", function(e) {
		var target = find_group(e.target);
		if (target) details.nodeValue = "Function: " + g_to_text(target);
	}, false)

	// clear
	window.addEventListener("mouseout", function(e) {
		var target = find_group(e.target);
		if (target) details.nodeValue = ' ';
	}, false)

	// ctrl-F for search
	// ctrl-I to toggle case-sensitive search
	window.addEventListener("keydown",function (e) {
		if (e.keyCode === 114 || (e.ctrlKey && e.keyCode === 70)) {
			e.preventDefault();
			search_prompt();
		}
		else if (e.ctrlKey && e.keyCode === 73) {
			e.preventDefault();
			toggle_ignorecase();
		}
	}, false)

	// functions
	function get_params() {
		var params = {};
		var paramsarr = window.location.search.substr(1).split('&');
		for (var i = 0; i < paramsarr.length; ++i) {
			var tmp = paramsarr[i].split("=");
			if (!tmp[0] || !tmp[1]) continue;
			params[tmp[0]]  = decodeURIComponent(tmp[1]);
		}
		return params;
	}
	function parse_params(params) {
		var uri = "?";
		for (var key in params) {
			uri += key + '=' + encodeURIComponent(params[key]) + '&';
		}
		if (uri.slice(-1) == "&")
			uri = uri.substring(0, uri.length - 1);
		if (uri == '?')
			uri = window.location.href.split('?')[0];
		return uri;
	}
	function find_child(node, selector) {
		var children = node.querySelectorAll(selector);
		if (children.length) return children[0];
	}
	function find_group(node) {
		var parent = node.parentElement;
		if (!parent) return;
		if (parent.id == "frames") return node;
		return find_group(parent);
	}
	function orig_save(e, attr, val) {
		if (e.attributes["_orig_" + attr] != undefined) return;
		if (e.attributes[attr] == undefined) return;
		if (val == undefined) val = e.attributes[attr].value;
		e.setAttribute("_orig_" + attr, val);
	}
	function orig_load(e, attr) {
		if (e.attributes["_orig_"+attr] == undefined) return;
		e.attributes[attr].value = e.attributes["_orig_" + attr].value;
		e.removeAttribute("_orig_"+attr);
	}
	function g_to_text(e) {
		var text = find_child(e, "title").firstChild.nodeValue;
		return (text)
	}
	function g_to_func(e) {
		var func = g_to_text(e);
		// if there's any manipulation we want to do to the function
		// name before it's searched, do it here before returning.
		return (func);
	}
	function update_text(e) {
		var r = find_child(e, "rect");
		var t = find_child(e, "text");
		var w = parseFloat(r.attributes.width.value) -3;
		var txt = find_child(e, "title").textContent.replace(/\([^(]*\)$/,"");
		t.attributes.x.value = parseFloat(r.attributes.x.value) + 3;

		// Smaller than this size won't fit anything
		if (w < 2 * 12 * 0.59) {
			t.textContent = "";
			return;
		}

		t.textContent = txt;
		var sl = t.getSubStringLength(0, txt.length);
		// check if only whitespace or if we can fit the entire string into width w
		if (/^ *$/.test(txt) || sl < w)
			return;

		// this isn't perfect, but gives a good starting point
		// and avoids calling getSubStringLength too often
		var start = Math.floor((w/sl) * txt.length);
		for (var x = start; x > 0; x = x-2) {
			if (t.getSubStringLength(0, x + 2) <= w) {
				t.textContent = txt.substring(0, x) + "..";
				return;
			}
		}
		t.textContent = "";
	}

	// zoom
	function zoom_reset(e) {
		if (e.attributes != undefined) {
			orig_load(e, "x");
			orig_load(e, "width");
		}
		if (e.childNodes == undefined) return;
		for (var i = 0, c = e.childNodes; i < c.length; i++) {
			zoom_reset(c[i]);
		}
	}
	function zoom_child(e, x, ratio) {
		if (e.attributes != undefined) {
			if (e.attributes.x != undefined) {
				orig_save(e, "x");
				e.attributes.x.value = (parseFloat(e.attributes.x.value) - x - 10) * ratio + 10;
				if (e.tagName == "text")
					e.attributes.x.value = find_child(e.parentNode, "rect[x]").attributes.x.value + 3;
			}
			if (e.attributes.width != undefined) {
				orig_save(e, "width");
				e.attributes.width.value = parseFloat(e.attributes.width.value) * ratio;
			}
		}

		if (e.childNodes == undefined) return;
		for (var i = 0, c = e.childNodes; i < c.length; i++) {
			zoom_child(c[i], x - 10, ratio);
		}
	}
	function zoom_parent(e) {
		if (e.attributes) {
			if (e.attributes.x != undefined) {
				orig_save(e, "x");
				e.attributes.x.value = 10;
			}
			if (e.attributes.width != undefined) {
				orig_save(e, "width");
				e.attributes.width.value = parseInt(svg.width.baseVal.value) - (10 * 2);
			}
		}
		if (e.childNodes == undefined) return;
		for (var i = 0, c = e.childNodes; i < c.length; i++) {
			zoom_parent(c[i]);
		}
	}
	function zoom(node) {
		var attr = find_child(node, "rect").attributes;
		var width = parseFloat(attr.width.value);
		var xmin = parseFloat(attr.x.value);
		var xmax = parseFloat(xmin + width);
		var ymin = parseFloat(attr.y.value);
		var ratio = (svg.width.baseVal.value - 2 * 10) / width;

		// XXX: Workaround for JavaScript float issues (fix me)
		var fudge = 0.0001;

		unzoombtn.classList.remove("hide");

		var el = document.getElementById("frames").children;
		for (var i = 0; i < el.length; i++) {
			var e = el[i];
			var a = find_child(e, "rect").attributes;
			var ex = parseFloat(a.x.value);
			var ew = parseFloat(a.width.value);
			var upstack;
			// Is it an ancestor
			if (0 == 0) {
				upstack = parseFloat(a.y.value) > ymin;
			} else {
				upstack = parseFloat(a.y.value) < ymin;
			}
			if (upstack) {
				// Direct ancestor
				if (ex <= xmin && (ex+ew+fudge) >= xmax) {
					e.classList.add("parent");
					zoom_parent(e);
					update_text(e);
				}
				// not in current path
				else
					e.classList.add("hide");
			}
			// Children maybe
			else {
				// no common path
				if (ex < xmin || ex + fudge >= xmax) {
					e.classList.add("hide");
				}
				else {
					zoom_child(e, xmin, ratio);
					update_text(e);
				}
			}
		}
		search();
	}
	function unzoom(dont_update_text) {
		unzoombtn.classList.add("hide");
		var el = document.getElementById("frames").children;
		for(var i = 0; i < el.length; i++) {
			el[i].classList.remove("parent");
			el[i].classList.remove("hide");
			zoom_reset(el[i]);
			if(!dont_update_text) update_text(el[i]);
		}
		search();
	}
	function clearzoom() {
		unzoom();

		// remove zoom state
		var params = get_params();
		if (params.x) delete params.x;
		if (params.y) delete params.y;
		history.replaceState(null, null, parse_params(params));
	}

	// search
	function toggle_ignorecase() {
		ignorecase = !ignorecase;
		if (ignorecase) {
			ignorecaseBtn.classList.add("show");
		} else {
			ignorecaseBtn.classList.remove("show");
		}
		reset_search();
		search();
	}
	function reset_search() {
		var el = document.querySelectorAll("#frames rect");
		for (var i = 0; i < el.length; i++) {
			orig_load(el[i], "fill")
		}
		var params = get_params();
		delete params.s;
		history.replaceState(null, null, parse_params(params));
	}
	function search_prompt() {
		if (!searching) {
			var term = prompt("Enter a search term (regexp " +
			    "allowed, eg: ^ext4_)"
			    + (ignorecase ? ", ignoring case" : "")
			    + "\nPress Ctrl-i to toggle case sensitivity", "");
			if (term != null) search(term);
		} else {
			reset_search();
			searching = 0;
			currentSearchTerm = null;
			searchbtn.classList.remove("show");
			searchbtn.firstChild.nodeValue = "Search"
			matchedtxt.classList.add("hide");
			matchedtxt.firstChild.nodeValue = ""
		}
	}
	function search(term) {
		if (term) currentSearchTerm = term;
		if (currentSearchTerm === null) return;

		var re = new RegExp(currentSearchTerm, ignorecase ? 'i' : '');
		var el = document.getElementById("frames").children;
		var matches = new Object();
		var maxwidth = 0;
		for (var i = 0; i < el.length; i++) {
			var e = el[i];
			var func = g_to_func(e);
			var rect = find_child(e, "rect");
			if (func == null || rect == null)
				continue;

			// Save max width. Only works as we have a root frame
			var w = parseFloat(rect.attributes.width.value);
			if (w > maxwidth)
				maxwidth = w;

			if (func.match(re)) {
				// highlight
				var x = parseFloat(rect.attributes.x.value);
				orig_save(rect, "fill");
				rect.attributes.fill.value = "rgb(230,0,230)";

				// remember matches
				if (matches[x] == undefined) {
					matches[x] = w;
				} else {
					if (w > matches[x]) {
						// overwrite with parent
						matches[x] = w;
					}
				}
				searching = 1;
			}
		}
		if (!searching)
			return;
		var params = get_params();
		params.s = currentSearchTerm;
		history.replaceState(null, null, parse_params(params));

		searchbtn.classList.add("show");
		searchbtn.firstChild.nodeValue = "Reset Search";

		// calculate percent matched, excluding vertical overlap
		var count = 0;
		var lastx = -1;
		var lastw = 0;
		var keys = Array();
		for (k in matches) {
			if (matches.hasOwnProperty(k))
				keys.push(k);
		}
		// sort the matched frames by their x location
		// ascending, then width descending
		keys.sort(function(a, b){
			return a - b;
		});
		// Step through frames saving only the biggest bottom-up frames
		// thanks to the sort order. This relies on the tree property
		// where children are always smaller than their parents.
		var fudge = 0.0001;	// JavaScript floating point
		for (var k in keys) {
			var x = parseFloat(keys[k]);
			var w = matches[keys[k]];
			if (x >= lastx + lastw - fudge) {
				count += w;
				lastx = x;
				lastw = w;
			}
		}
		// display matched percent
		matchedtxt.classList.remove("hide");
		var pct = 100 * count / maxwidth;
		if (pct != 100) pct = pct.toFixed(1)
		matchedtxt.firstChild.nodeValue = "Matched: " + pct + "%";
	}
]]>
</script>
<rect x="0.0" y="0" width="1200.0" height="246.0" fill="url(#background)"  />
<text id="title" x="600.00" y="24" >Flame Graph</text>
<text id="details" x="10.00" y="229" > </text>
<text id="unzoom" x="10.00" y="24" class="hide">Reset Zoom</text>
<text id="search" x="1090.00" y="24" >Search</text>
<text id="ignorecase" x="1174.00" y="24" >ic</text>
<text id="matched" x="1090.00" y="229" > </text>
<g id="frames">
<g >
<title>runtime.(*mheap).alloc.func1 (3 samples, 0.02%)</title><rect x="476.9" y="85" width="0.2" height="15.0" fill="rgb(252,216,51)" rx="2" ry="2" />
<text  x="479.86" y="95.5" ></text>
</g>
<g >
<title>runtime.gcMarkDone (2 samples, 0.01%)</title><rect x="1181.4" y="165" width="0.2" height="15.0" fill="rgb(253,222,53)" rx="2" ry="2" />
<text  x="1184.44" y="175.5" ></text>
</g>
<g >
<title>internal/runtime/syscall.Syscall6 (8 samples, 0.05%)</title><rect x="10.1" y="69" width="0.6" height="15.0" fill="rgb(210,24,5)" rx="2" ry="2" />
<text  x="13.13" y="79.5" ></text>
</g>
<g >
<title>runtime.preemptM (2 samples, 0.01%)</title><rect x="1181.3" y="85" width="0.1" height="15.0" fill="rgb(240,161,38)" rx="2" ry="2" />
<text  x="1184.30" y="95.5" ></text>
</g>
<g >
<title>runtime.futexwakeup (2 samples, 0.01%)</title><rect x="1189.3" y="53" width="0.2" height="15.0" fill="rgb(219,66,15)" rx="2" ry="2" />
<text  x="1192.33" y="63.5" ></text>
</g>
<g >
<title>runtime.memclrNoHeapPointersChunked (153 samples, 0.87%)</title><rect x="477.2" y="133" width="10.2" height="15.0" fill="rgb(241,169,40)" rx="2" ry="2" />
<text  x="480.20" y="143.5" ></text>
</g>
<g >
<title>runtime.strhash (114 samples, 0.65%)</title><rect x="677.6" y="149" width="7.6" height="15.0" fill="rgb(237,149,35)" rx="2" ry="2" />
<text  x="680.59" y="159.5" ></text>
</g>
<g >
<title>runtime.findRunnable (6 samples, 0.03%)</title><rect x="1188.9" y="117" width="0.4" height="15.0" fill="rgb(219,64,15)" rx="2" ry="2" />
<text  x="1191.86" y="127.5" ></text>
</g>
<g >
<title>main.(*Measurements).Add (1,344 samples, 7.62%)</title><rect x="10.7" y="181" width="89.9" height="15.0" fill="rgb(219,67,16)" rx="2" ry="2" />
<text  x="13.67" y="191.5" >main.(*Mea..</text>
</g>
<g >
<title>runtime.memmove (456 samples, 2.58%)</title><rect x="395.9" y="149" width="30.5" height="15.0" fill="rgb(232,127,30)" rx="2" ry="2" />
<text  x="398.93" y="159.5" >ru..</text>
</g>
<g >
<title>runtime.(*scavengerState).init.func2 (24 samples, 0.14%)</title><rect x="1179.6" y="149" width="1.6" height="15.0" fill="rgb(233,131,31)" rx="2" ry="2" />
<text  x="1182.63" y="159.5" ></text>
</g>
<g >
<title>runtime.memclrNoHeapPointers (4 samples, 0.02%)</title><rect x="476.5" y="85" width="0.2" height="15.0" fill="rgb(252,219,52)" rx="2" ry="2" />
<text  x="479.46" y="95.5" ></text>
</g>
<g >
<title>runtime.systemstack (100 samples, 0.57%)</title><rect x="1181.6" y="165" width="6.7" height="15.0" fill="rgb(206,6,1)" rx="2" ry="2" />
<text  x="1184.57" y="175.5" ></text>
</g>
<g >
<title>syscall.Syscall (8 samples, 0.05%)</title><rect x="10.1" y="101" width="0.6" height="15.0" fill="rgb(215,47,11)" rx="2" ry="2" />
<text  x="13.13" y="111.5" ></text>
</g>
<g >
<title>runtime.forEachP (2 samples, 0.01%)</title><rect x="1181.3" y="165" width="0.1" height="15.0" fill="rgb(216,52,12)" rx="2" ry="2" />
<text  x="1184.30" y="175.5" ></text>
</g>
<g >
<title>runtime.bucketMask (92 samples, 0.52%)</title><rect x="464.2" y="165" width="6.1" height="15.0" fill="rgb(249,206,49)" rx="2" ry="2" />
<text  x="467.15" y="175.5" ></text>
</g>
<g >
<title>main.merger (17 samples, 0.10%)</title><rect x="1099.6" y="181" width="1.1" height="15.0" fill="rgb(249,204,48)" rx="2" ry="2" />
<text  x="1102.57" y="191.5" ></text>
</g>
<g >
<title>runtime.sysUnusedOS (24 samples, 0.14%)</title><rect x="1179.6" y="69" width="1.6" height="15.0" fill="rgb(208,16,3)" rx="2" ry="2" />
<text  x="1182.63" y="79.5" ></text>
</g>
<g >
<title>main.aggregate (14,936 samples, 84.66%)</title><rect x="100.6" y="181" width="999.0" height="15.0" fill="rgb(206,8,1)" rx="2" ry="2" />
<text  x="103.56" y="191.5" >main.aggregate</text>
</g>
<g >
<title>runtime.signalM (41 samples, 0.23%)</title><rect x="1181.9" y="69" width="2.7" height="15.0" fill="rgb(210,25,6)" rx="2" ry="2" />
<text  x="1184.91" y="79.5" ></text>
</g>
<g >
<title>runtime.mallocgc (158 samples, 0.90%)</title><rect x="476.9" y="149" width="10.5" height="15.0" fill="rgb(241,169,40)" rx="2" ry="2" />
<text  x="479.86" y="159.5" ></text>
</g>
<g >
<title>syscall.Write (8 samples, 0.05%)</title><rect x="10.1" y="133" width="0.6" height="15.0" fill="rgb(208,18,4)" rx="2" ry="2" />
<text  x="13.13" y="143.5" ></text>
</g>
<g >
<title>syscall.write (8 samples, 0.05%)</title><rect x="10.1" y="117" width="0.6" height="15.0" fill="rgb(252,217,51)" rx="2" ry="2" />
<text  x="13.13" y="127.5" ></text>
</g>
<g >
<title>runtime.gcstopm (3 samples, 0.02%)</title><rect x="1188.9" y="101" width="0.2" height="15.0" fill="rgb(237,149,35)" rx="2" ry="2" />
<text  x="1191.93" y="111.5" ></text>
</g>
<g >
<title>runtime.forEachPInternal (2 samples, 0.01%)</title><rect x="1181.3" y="117" width="0.1" height="15.0" fill="rgb(211,28,6)" rx="2" ry="2" />
<text  x="1184.30" y="127.5" ></text>
</g>
<g >
<title>runtime.mallocgc (4 samples, 0.02%)</title><rect x="476.5" y="117" width="0.2" height="15.0" fill="rgb(241,169,40)" rx="2" ry="2" />
<text  x="479.46" y="127.5" ></text>
</g>
<g >
<title>runtime.markroot.func1 (91 samples, 0.52%)</title><rect x="1181.6" y="101" width="6.1" height="15.0" fill="rgb(222,80,19)" rx="2" ry="2" />
<text  x="1184.57" y="111.5" ></text>
</g>
<g >
<title>runtime.(*mheap).allocSpan (2 samples, 0.01%)</title><rect x="476.9" y="69" width="0.1" height="15.0" fill="rgb(233,132,31)" rx="2" ry="2" />
<text  x="479.86" y="79.5" ></text>
</g>
<g >
<title>runtime.wakep (3 samples, 0.02%)</title><rect x="1189.3" y="101" width="0.2" height="15.0" fill="rgb(216,54,13)" rx="2" ry="2" />
<text  x="1192.26" y="111.5" ></text>
</g>
<g >
<title>golang.org/x/exp/mmap.(*ReaderAt).ReadAt (456 samples, 2.58%)</title><rect x="395.9" y="165" width="30.5" height="15.0" fill="rgb(243,177,42)" rx="2" ry="2" />
<text  x="398.93" y="175.5" >go..</text>
</g>
<g >
<title>runtime.systemstack (3 samples, 0.02%)</title><rect x="476.9" y="101" width="0.2" height="15.0" fill="rgb(206,6,1)" rx="2" ry="2" />
<text  x="479.86" y="111.5" ></text>
</g>
<g >
<title>runtime.(*scavengerState).run (24 samples, 0.14%)</title><rect x="1179.6" y="165" width="1.6" height="15.0" fill="rgb(232,125,30)" rx="2" ry="2" />
<text  x="1182.63" y="175.5" ></text>
</g>
<g >
<title>runtime.nanotime (4 samples, 0.02%)</title><rect x="1181.6" y="85" width="0.3" height="15.0" fill="rgb(230,116,27)" rx="2" ry="2" />
<text  x="1184.64" y="95.5" ></text>
</g>
<g >
<title>runtime.gcDrainMarkWorkerDedicated (100 samples, 0.57%)</title><rect x="1181.6" y="149" width="6.7" height="15.0" fill="rgb(206,5,1)" rx="2" ry="2" />
<text  x="1184.57" y="159.5" ></text>
</g>
<g >
<title>runtime.lockWithRank (6 samples, 0.03%)</title><rect x="1189.5" y="149" width="0.4" height="15.0" fill="rgb(214,42,10)" rx="2" ry="2" />
<text  x="1192.46" y="159.5" ></text>
</g>
<g >
<title>runtime.mallocgc (6 samples, 0.03%)</title><rect x="1098.1" y="149" width="0.4" height="15.0" fill="rgb(241,169,40)" rx="2" ry="2" />
<text  x="1101.10" y="159.5" ></text>
</g>
<g >
<title>runtime.bucketShift (92 samples, 0.52%)</title><rect x="470.3" y="165" width="6.2" height="15.0" fill="rgb(213,38,9)" rx="2" ry="2" />
<text  x="473.31" y="175.5" ></text>
</g>
<g >
<title>runtime.systemstack (2 samples, 0.01%)</title><rect x="1181.3" y="149" width="0.1" height="15.0" fill="rgb(206,6,1)" rx="2" ry="2" />
<text  x="1184.30" y="159.5" ></text>
</g>
<g >
<title>runtime.(*mheap).alloc (3 samples, 0.02%)</title><rect x="476.9" y="117" width="0.2" height="15.0" fill="rgb(230,117,28)" rx="2" ry="2" />
<text  x="479.86" y="127.5" ></text>
</g>
<g >
<title>runtime.osyield (18 samples, 0.10%)</title><rect x="1185.0" y="69" width="1.2" height="15.0" fill="rgb(213,38,9)" rx="2" ry="2" />
<text  x="1187.98" y="79.5" ></text>
</g>
<g >
<title>runtime.mapaccess2_faststr (7 samples, 0.04%)</title><rect x="1099.8" y="165" width="0.5" height="15.0" fill="rgb(238,152,36)" rx="2" ry="2" />
<text  x="1102.84" y="175.5" ></text>
</g>
<g >
<title>aeshashbody (2 samples, 0.01%)</title><rect x="1097.9" y="149" width="0.1" height="15.0" fill="rgb(250,210,50)" rx="2" ry="2" />
<text  x="1100.90" y="159.5" ></text>
</g>
<g >
<title>runtime.(*mcache).allocLarge (4 samples, 0.02%)</title><rect x="476.9" y="133" width="0.2" height="15.0" fill="rgb(253,221,53)" rx="2" ry="2" />
<text  x="479.86" y="143.5" ></text>
</g>
<g >
<title>runtime.goschedImpl (9 samples, 0.05%)</title><rect x="1188.9" y="149" width="0.6" height="15.0" fill="rgb(247,194,46)" rx="2" ry="2" />
<text  x="1191.86" y="159.5" ></text>
</g>
<g >
<title>golang.org/x/exp/mmap.(*ReaderAt).At (5 samples, 0.03%)</title><rect x="1188.3" y="165" width="0.3" height="15.0" fill="rgb(248,199,47)" rx="2" ry="2" />
<text  x="1191.26" y="175.5" ></text>
</g>
<g >
<title>runtime.markroot (92 samples, 0.52%)</title><rect x="1181.6" y="117" width="6.1" height="15.0" fill="rgb(251,212,50)" rx="2" ry="2" />
<text  x="1184.57" y="127.5" ></text>
</g>
<g >
<title>runtime.newarray (4 samples, 0.02%)</title><rect x="476.5" y="133" width="0.2" height="15.0" fill="rgb(239,160,38)" rx="2" ry="2" />
<text  x="479.46" y="143.5" ></text>
</g>
<g >
<title>runtime.makeBucketArray (4 samples, 0.02%)</title><rect x="476.5" y="149" width="0.2" height="15.0" fill="rgb(239,157,37)" rx="2" ry="2" />
<text  x="479.46" y="159.5" ></text>
</g>
<g >
<title>runtime.asyncPreempt (5 samples, 0.03%)</title><rect x="463.8" y="165" width="0.4" height="15.0" fill="rgb(243,174,41)" rx="2" ry="2" />
<text  x="466.82" y="175.5" ></text>
</g>
<g >
<title>runtime.gcDrain (100 samples, 0.57%)</title><rect x="1181.6" y="133" width="6.7" height="15.0" fill="rgb(233,130,31)" rx="2" ry="2" />
<text  x="1184.57" y="143.5" ></text>
</g>
<g >
<title>runtime.mapaccess2_faststr (6,166 samples, 34.95%)</title><rect x="685.2" y="165" width="412.4" height="15.0" fill="rgb(238,152,36)" rx="2" ry="2" />
<text  x="688.21" y="175.5" >runtime.mapaccess2_faststr</text>
</g>
<g >
<title>runtime.nextFreeFast (2 samples, 0.01%)</title><rect x="1098.5" y="149" width="0.1" height="15.0" fill="rgb(227,102,24)" rx="2" ry="2" />
<text  x="1101.50" y="159.5" ></text>
</g>
<g >
<title>runtime.memclrNoHeapPointersChunked (4 samples, 0.02%)</title><rect x="476.5" y="101" width="0.2" height="15.0" fill="rgb(241,169,40)" rx="2" ry="2" />
<text  x="479.46" y="111.5" ></text>
</g>
<g >
<title>fmt.Fprintf (10 samples, 0.06%)</title><rect x="10.0" y="165" width="0.7" height="15.0" fill="rgb(244,182,43)" rx="2" ry="2" />
<text  x="13.00" y="175.5" ></text>
</g>
<g >
<title>runtime.makeslice (158 samples, 0.90%)</title><rect x="476.9" y="165" width="10.5" height="15.0" fill="rgb(244,180,43)" rx="2" ry="2" />
<text  x="479.86" y="175.5" ></text>
</g>
<g >
<title>runtime.madvise (24 samples, 0.14%)</title><rect x="1179.6" y="53" width="1.6" height="15.0" fill="rgb(216,54,12)" rx="2" ry="2" />
<text  x="1182.63" y="63.5" ></text>
</g>
<g >
<title>runtime.newobject (2 samples, 0.01%)</title><rect x="476.7" y="149" width="0.2" height="15.0" fill="rgb(221,75,18)" rx="2" ry="2" />
<text  x="479.73" y="159.5" ></text>
</g>
<g >
<title>runtime.notesleep (3 samples, 0.02%)</title><rect x="1188.9" y="69" width="0.2" height="15.0" fill="rgb(230,119,28)" rx="2" ry="2" />
<text  x="1191.93" y="79.5" ></text>
</g>
<g >
<title>runtime.main (8 samples, 0.05%)</title><rect x="1188.3" y="181" width="0.5" height="15.0" fill="rgb(209,21,5)" rx="2" ry="2" />
<text  x="1191.26" y="191.5" ></text>
</g>
<g >
<title>runtime.mapassign_faststr (7 samples, 0.04%)</title><rect x="1097.6" y="165" width="0.5" height="15.0" fill="rgb(238,153,36)" rx="2" ry="2" />
<text  x="1100.63" y="175.5" ></text>
</g>
<g >
<title>runtime.newobject (2 samples, 0.01%)</title><rect x="1188.6" y="149" width="0.1" height="15.0" fill="rgb(221,75,18)" rx="2" ry="2" />
<text  x="1191.60" y="159.5" ></text>
</g>
<g >
<title>runtime.(*pageAlloc).scavenge.func1 (24 samples, 0.14%)</title><rect x="1179.6" y="101" width="1.6" height="15.0" fill="rgb(217,56,13)" rx="2" ry="2" />
<text  x="1182.63" y="111.5" ></text>
</g>
<g >
<title>runtime.startm (2 samples, 0.01%)</title><rect x="1189.3" y="85" width="0.2" height="15.0" fill="rgb(220,71,17)" rx="2" ry="2" />
<text  x="1192.33" y="95.5" ></text>
</g>
<g >
<title>runtime.futex (3 samples, 0.02%)</title><rect x="1188.9" y="37" width="0.2" height="15.0" fill="rgb(237,150,35)" rx="2" ry="2" />
<text  x="1191.93" y="47.5" ></text>
</g>
<g >
<title>runtime.procyield (22 samples, 0.12%)</title><rect x="1186.2" y="69" width="1.5" height="15.0" fill="rgb(206,8,1)" rx="2" ry="2" />
<text  x="1189.19" y="79.5" ></text>
</g>
<g >
<title>aeshashbody (1,444 samples, 8.19%)</title><rect x="903.1" y="149" width="96.6" height="15.0" fill="rgb(250,210,50)" rx="2" ry="2" />
<text  x="906.13" y="159.5" >aeshashbody</text>
</g>
<g >
<title>runtime.add (528 samples, 2.99%)</title><rect x="428.5" y="165" width="35.3" height="15.0" fill="rgb(210,26,6)" rx="2" ry="2" />
<text  x="431.50" y="175.5" >ru..</text>
</g>
<g >
<title>runtime.(*bmap).keys (31 samples, 0.18%)</title><rect x="426.4" y="165" width="2.1" height="15.0" fill="rgb(232,124,29)" rx="2" ry="2" />
<text  x="429.43" y="175.5" ></text>
</g>
<g >
<title>memeqbody (2 samples, 0.01%)</title><rect x="1100.2" y="149" width="0.1" height="15.0" fill="rgb(242,173,41)" rx="2" ry="2" />
<text  x="1103.17" y="159.5" ></text>
</g>
<g >
<title>runtime.preemptM (41 samples, 0.23%)</title><rect x="1181.9" y="85" width="2.7" height="15.0" fill="rgb(240,161,38)" rx="2" ry="2" />
<text  x="1184.91" y="95.5" ></text>
</g>
<g >
<title>runtime.gcMarkDone.forEachP.func5 (2 samples, 0.01%)</title><rect x="1181.3" y="133" width="0.1" height="15.0" fill="rgb(239,156,37)" rx="2" ry="2" />
<text  x="1184.30" y="143.5" ></text>
</g>
<g >
<title>os.(*File).write (8 samples, 0.05%)</title><rect x="10.1" y="149" width="0.6" height="15.0" fill="rgb(248,201,48)" rx="2" ry="2" />
<text  x="13.13" y="159.5" ></text>
</g>
<g >
<title>memeqbody (1,211 samples, 6.86%)</title><rect x="999.7" y="149" width="81.0" height="15.0" fill="rgb(242,173,41)" rx="2" ry="2" />
<text  x="1002.71" y="159.5" >memeqbody</text>
</g>
<g >
<title>runtime.tgkill (30 samples, 0.17%)</title><rect x="1182.6" y="53" width="2.0" height="15.0" fill="rgb(249,206,49)" rx="2" ry="2" />
<text  x="1185.64" y="63.5" ></text>
</g>
<g >
<title>runtime.futex (2 samples, 0.01%)</title><rect x="1189.3" y="37" width="0.2" height="15.0" fill="rgb(237,150,35)" rx="2" ry="2" />
<text  x="1192.33" y="47.5" ></text>
</g>
<g >
<title>runtime.newobject (8 samples, 0.05%)</title><rect x="1098.1" y="165" width="0.5" height="15.0" fill="rgb(221,75,18)" rx="2" ry="2" />
<text  x="1101.10" y="175.5" ></text>
</g>
<g >
<title>runtime.mapaccess1_faststr (4 samples, 0.02%)</title><rect x="1099.6" y="165" width="0.2" height="15.0" fill="rgb(244,182,43)" rx="2" ry="2" />
<text  x="1102.57" y="175.5" ></text>
</g>
<g >
<title>main.main (3 samples, 0.02%)</title><rect x="1188.6" y="165" width="0.2" height="15.0" fill="rgb(227,101,24)" rx="2" ry="2" />
<text  x="1191.60" y="175.5" ></text>
</g>
<g >
<title>runtime.notewakeup (2 samples, 0.01%)</title><rect x="1189.3" y="69" width="0.2" height="15.0" fill="rgb(231,122,29)" rx="2" ry="2" />
<text  x="1192.33" y="79.5" ></text>
</g>
<g >
<title>runtime.memequal (108 samples, 0.61%)</title><rect x="1080.7" y="149" width="7.2" height="15.0" fill="rgb(206,5,1)" rx="2" ry="2" />
<text  x="1083.71" y="159.5" ></text>
</g>
<g >
<title>runtime.resetspinning (3 samples, 0.02%)</title><rect x="1189.3" y="117" width="0.2" height="15.0" fill="rgb(225,95,22)" rx="2" ry="2" />
<text  x="1192.26" y="127.5" ></text>
</g>
<g >
<title>runtime.(*pageAlloc).scavenge (24 samples, 0.14%)</title><rect x="1179.6" y="133" width="1.6" height="15.0" fill="rgb(245,187,44)" rx="2" ry="2" />
<text  x="1182.63" y="143.5" ></text>
</g>
<g >
<title>runtime.makemap (6 samples, 0.03%)</title><rect x="476.5" y="165" width="0.4" height="15.0" fill="rgb(250,210,50)" rx="2" ry="2" />
<text  x="479.46" y="175.5" ></text>
</g>
<g >
<title>memeqbody (353 samples, 2.00%)</title><rect x="647.5" y="149" width="23.6" height="15.0" fill="rgb(242,173,41)" rx="2" ry="2" />
<text  x="650.49" y="159.5" >m..</text>
</g>
<g >
<title>runtime.memequal (97 samples, 0.55%)</title><rect x="671.1" y="149" width="6.5" height="15.0" fill="rgb(206,5,1)" rx="2" ry="2" />
<text  x="674.10" y="159.5" ></text>
</g>
<g >
<title>fmt.Printf (10 samples, 0.06%)</title><rect x="10.0" y="181" width="0.7" height="15.0" fill="rgb(253,223,53)" rx="2" ry="2" />
<text  x="13.00" y="191.5" ></text>
</g>
<g >
<title>runtime.futexsleep (3 samples, 0.02%)</title><rect x="1188.9" y="53" width="0.2" height="15.0" fill="rgb(218,63,15)" rx="2" ry="2" />
<text  x="1191.93" y="63.5" ></text>
</g>
<g >
<title>runtime.mapaccess1_faststr (2,957 samples, 16.76%)</title><rect x="487.4" y="165" width="197.8" height="15.0" fill="rgb(244,182,43)" rx="2" ry="2" />
<text  x="490.43" y="175.5" >runtime.mapaccess1_faststr</text>
</g>
<g >
<title>runtime.bgscavenge (24 samples, 0.14%)</title><rect x="1179.6" y="181" width="1.6" height="15.0" fill="rgb(228,109,26)" rx="2" ry="2" />
<text  x="1182.63" y="191.5" ></text>
</g>
<g >
<title>runtime.getpid (10 samples, 0.06%)</title><rect x="1182.0" y="53" width="0.6" height="15.0" fill="rgb(214,43,10)" rx="2" ry="2" />
<text  x="1184.97" y="63.5" ></text>
</g>
<g >
<title>runtime.procyield (5 samples, 0.03%)</title><rect x="1189.5" y="117" width="0.4" height="15.0" fill="rgb(206,8,1)" rx="2" ry="2" />
<text  x="1192.53" y="127.5" ></text>
</g>
<g >
<title>runtime.preemptall (2 samples, 0.01%)</title><rect x="1181.3" y="101" width="0.1" height="15.0" fill="rgb(215,48,11)" rx="2" ry="2" />
<text  x="1184.30" y="111.5" ></text>
</g>
<g >
<title>runtime.tophash (13 samples, 0.07%)</title><rect x="1098.7" y="165" width="0.9" height="15.0" fill="rgb(226,97,23)" rx="2" ry="2" />
<text  x="1101.70" y="175.5" ></text>
</g>
<g >
<title>syscall.RawSyscall6 (8 samples, 0.05%)</title><rect x="10.1" y="85" width="0.6" height="15.0" fill="rgb(241,167,40)" rx="2" ry="2" />
<text  x="13.13" y="95.5" ></text>
</g>
<g >
<title>runtime.mapiternext (6 samples, 0.03%)</title><rect x="1100.3" y="165" width="0.4" height="15.0" fill="rgb(221,73,17)" rx="2" ry="2" />
<text  x="1103.31" y="175.5" ></text>
</g>
<g >
<title>runtime.schedule (9 samples, 0.05%)</title><rect x="1188.9" y="133" width="0.6" height="15.0" fill="rgb(220,72,17)" rx="2" ry="2" />
<text  x="1191.86" y="143.5" ></text>
</g>
<g >
<title>runtime.systemstack (24 samples, 0.14%)</title><rect x="1179.6" y="117" width="1.6" height="15.0" fill="rgb(206,6,1)" rx="2" ry="2" />
<text  x="1182.63" y="127.5" ></text>
</g>
<g >
<title>runtime.strhash (145 samples, 0.82%)</title><rect x="1087.9" y="149" width="9.7" height="15.0" fill="rgb(237,149,35)" rx="2" ry="2" />
<text  x="1090.93" y="159.5" ></text>
</g>
<g >
<title>runtime.mPark (3 samples, 0.02%)</title><rect x="1188.9" y="85" width="0.2" height="15.0" fill="rgb(254,226,54)" rx="2" ry="2" />
<text  x="1191.93" y="95.5" ></text>
</g>
<g >
<title>runtime.(*mheap).initSpan (2 samples, 0.01%)</title><rect x="476.9" y="53" width="0.1" height="15.0" fill="rgb(245,187,44)" rx="2" ry="2" />
<text  x="479.86" y="63.5" ></text>
</g>
<g >
<title>runtime.memclrNoHeapPointers (153 samples, 0.87%)</title><rect x="477.2" y="117" width="10.2" height="15.0" fill="rgb(252,219,52)" rx="2" ry="2" />
<text  x="480.20" y="127.5" ></text>
</g>
<g >
<title>runtime.gopreempt_m (16 samples, 0.09%)</title><rect x="1188.9" y="165" width="1.0" height="15.0" fill="rgb(237,148,35)" rx="2" ry="2" />
<text  x="1191.86" y="175.5" ></text>
</g>
<g >
<title>runtime.signalM (2 samples, 0.01%)</title><rect x="1181.3" y="69" width="0.1" height="15.0" fill="rgb(210,25,6)" rx="2" ry="2" />
<text  x="1184.30" y="79.5" ></text>
</g>
<g >
<title>runtime.lock2 (6 samples, 0.03%)</title><rect x="1189.5" y="133" width="0.4" height="15.0" fill="rgb(210,27,6)" rx="2" ry="2" />
<text  x="1192.46" y="143.5" ></text>
</g>
<g >
<title>all (17,642 samples, 100%)</title><rect x="10.0" y="197" width="1180.0" height="15.0" fill="rgb(213,39,9)" rx="2" ry="2" />
<text  x="13.00" y="207.5" ></text>
</g>
<g >
<title>runtime.suspendG (44 samples, 0.25%)</title><rect x="1184.7" y="85" width="3.0" height="15.0" fill="rgb(246,191,45)" rx="2" ry="2" />
<text  x="1187.72" y="95.5" ></text>
</g>
<g >
<title>runtime.sysUnused (24 samples, 0.14%)</title><rect x="1179.6" y="85" width="1.6" height="15.0" fill="rgb(205,0,0)" rx="2" ry="2" />
<text  x="1182.63" y="95.5" ></text>
</g>
<g >
<title>runtime.scanobject (8 samples, 0.05%)</title><rect x="1187.7" y="117" width="0.6" height="15.0" fill="rgb(233,131,31)" rx="2" ry="2" />
<text  x="1190.73" y="127.5" ></text>
</g>
<g >
<title>main.parseTempToInt (1,180 samples, 6.69%)</title><rect x="1100.7" y="181" width="78.9" height="15.0" fill="rgb(251,211,50)" rx="2" ry="2" />
<text  x="1103.71" y="191.5" >main.pars..</text>
</g>
<g >
<title>runtime.morestack (17 samples, 0.10%)</title><rect x="1188.8" y="181" width="1.1" height="15.0" fill="rgb(219,67,16)" rx="2" ry="2" />
<text  x="1191.80" y="191.5" ></text>
</g>
<g >
<title>runtime.gcBgMarkWorker (104 samples, 0.59%)</title><rect x="1181.3" y="181" width="7.0" height="15.0" fill="rgb(235,140,33)" rx="2" ry="2" />
<text  x="1184.30" y="191.5" ></text>
</g>
<g >
<title>aeshashbody (1,089 samples, 6.17%)</title><rect x="574.7" y="149" width="72.8" height="15.0" fill="rgb(250,210,50)" rx="2" ry="2" />
<text  x="577.65" y="159.5" >aeshashb..</text>
</g>
</g>
</svg>
